<svg width="43" height="35" viewBox="0 0 43 35" fill="none" xmlns="http://www.w3.org/2000/svg">
<g clip-path="url(#clip0)">
<path d="M24.2716 7.33105H4.89359C2.33773 7.33105 0.246582 9.02694 0.246582 11.0997V23.7999C0.246582 25.8727 2.33773 27.5686 4.89359 27.5686H24.2716C26.8274 27.5686 28.9186 25.8727 28.9186 23.7999V11.0997C28.9186 8.98925 26.8274 7.33105 24.2716 7.33105Z" fill="#CE66EF"/>
<path d="M39.2815 9.40372C39.0027 9.44141 38.7239 9.55446 38.4915 9.66752L31.2422 13.0593V21.8025L38.538 25.1942C39.8856 25.8349 41.5585 25.458 42.3485 24.3651C42.5809 24.026 42.7203 23.6491 42.7203 23.2346V11.5895C42.7203 10.1951 41.0938 9.06454 39.2815 9.40372Z" fill="#CE66EF"/>
</g>
<defs>
<clipPath id="clip0">
<rect width="42.4736" height="34.4452" fill="white" transform="translate(0.246582 0.227051)"/>
</clipPath>
</defs>
</svg>
