<svg width="33" height="27" viewBox="0 0 33 27" fill="none" xmlns="http://www.w3.org/2000/svg">
<g clip-path="url(#clip0)">
<path d="M32.7479 21.1458L32.1736 19.3649C32.0481 18.9754 31.6485 18.6919 31.1556 18.6426L29.1078 18.4383C29.057 18.4333 29.01 18.4136 28.9752 18.3831L25.8601 15.6421C25.8143 15.6018 25.7845 15.5518 25.7743 15.4975L25.1326 12.1235C25.0937 11.9185 24.8578 11.7781 24.6043 11.8095C24.3515 11.8411 24.1782 12.033 24.2172 12.238L24.8588 15.6119C24.8973 15.8143 25.0081 16.0008 25.1791 16.1513L28.2941 18.8922C28.4774 19.0535 28.7262 19.1571 28.9947 19.1839L31.0425 19.3883C31.1563 19.3996 31.2484 19.465 31.2775 19.5549L31.7729 21.0912L28.8088 20.0873C28.5942 20.0146 28.3879 19.9238 28.1958 19.8176L23.7581 17.3647C23.6344 17.2964 23.5431 17.1946 23.501 17.0782L21.8661 12.5579C22.0154 12.2146 22.093 11.8518 22.093 11.4851C22.093 11.4851 22.0923 8.75709 22.0908 8.73408C22.2626 8.79519 22.4268 8.87017 22.5791 8.95973L22.8339 9.10963C23.3981 9.44159 23.7826 9.95241 23.8888 10.5112C23.9741 10.9956 24.9045 10.876 24.8043 10.3966C24.6606 9.6412 24.1407 8.95044 23.3779 8.50158L23.123 8.35167C22.6695 8.08481 22.1399 7.90901 21.5868 7.83827C21.2886 7.60461 20.8832 7.4604 20.4369 7.4604H19.1807V6.66863C19.1807 6.66742 19.1805 6.66626 19.1804 6.66505C19.3981 6.46943 19.58 6.24696 19.7162 6.0074C20.1367 5.90068 20.5243 5.62322 20.7718 5.23914C20.9654 4.93857 21.047 4.60803 21.0017 4.30836C20.9492 3.96238 20.7282 3.6831 20.3954 3.54202C20.2748 3.49096 20.1454 3.45988 20.011 3.44873V3.44262V2.37127C20.011 1.38484 19.0214 0.582275 17.8051 0.582275H15.911C14.6946 0.582275 13.705 1.38484 13.705 2.37127V3.44267V3.44666C13.5622 3.45594 13.4244 3.48773 13.2962 3.54202C12.9633 3.6831 12.7423 3.96238 12.6899 4.30836C12.6445 4.60803 12.7261 4.93862 12.9198 5.23914C13.1699 5.62735 13.5739 5.91022 14.0028 6.01269C14.1336 6.24126 14.3057 6.45429 14.5109 6.64305V7.46045H13.2547C12.8084 7.46045 12.403 7.60466 12.1049 7.83827C11.5518 7.90896 11.0221 8.08486 10.5685 8.35172L10.3137 8.50163C9.55083 8.95049 9.03089 9.64125 8.88723 10.3967L7.9172 15.4976C7.90687 15.5518 7.87719 15.6019 7.83134 15.6422L4.71625 18.3832C4.68159 18.4137 4.63449 18.4333 4.58373 18.4383L2.53597 18.6427C2.04321 18.6919 1.64359 18.9754 1.51797 19.3649L0.943708 21.1459C0.877136 21.3523 0.943148 21.5665 1.11586 21.7219C0.999455 21.9716 0.938295 22.2371 0.938295 22.5069C0.938295 23.7317 2.16702 24.7281 3.67728 24.7281H6.85409C6.73806 24.9334 6.70577 25.1677 6.77203 25.3931C6.88893 25.8402 7.54669 26.0985 8.05153 25.8947L9.82664 25.2234C10.2216 25.074 10.6421 24.9834 11.0766 24.9539L14.3776 24.7282H30.0144C31.5246 24.7282 32.7534 23.7317 32.7534 22.5069C32.7534 22.2377 32.6917 21.9722 32.5753 21.7224C32.7483 21.5668 32.8145 21.3525 32.7479 21.1458ZM23.2363 17.9854L24.7388 18.816C23.8674 18.7184 22.9879 18.6688 22.1072 18.6688C22.1008 18.6688 22.0946 18.6694 22.0882 18.6696L21.9168 18.4398C21.2903 17.6002 20.9592 16.6378 20.9592 15.6565V14.8464C20.9592 14.4082 21.065 13.9754 21.2675 13.572L22.6121 17.2896C22.7144 17.5725 22.9361 17.8195 23.2363 17.9854ZM15.4373 7.36872C15.849 7.64745 16.3534 7.78726 16.858 7.78726C17.3527 7.78726 17.8471 7.65289 18.2543 7.38512V8.02986C18.2543 8.33124 17.9519 8.57646 17.5803 8.57646H16.1113C15.7396 8.57646 15.4373 8.33124 15.4373 8.02986V7.36872ZM15.911 1.33353H17.8051C18.5106 1.33353 19.0846 1.79909 19.0846 2.37127V2.38712H14.6314V2.37127C14.6314 1.79904 15.2054 1.33353 15.911 1.33353ZM13.7409 4.89129C13.6349 4.72685 13.587 4.54778 13.6094 4.40004C13.622 4.20049 13.8019 4.15502 13.9662 4.23343C14.1097 4.28984 14.279 4.28243 14.4142 4.21371C14.5494 4.14503 14.6314 4.02474 14.6314 3.89542V3.13837H19.0847V3.88604C19.0847 4.01369 19.1646 4.13262 19.297 4.2018C19.4293 4.27092 19.5959 4.28086 19.7393 4.22809C19.8977 4.15528 20.0706 4.2076 20.0823 4.39999C20.1047 4.54773 20.0568 4.7268 19.9508 4.89124C19.7835 5.15094 19.5239 5.2954 19.354 5.30393C19.1699 5.31316 19.0101 5.41009 18.9472 5.55071C18.8277 5.81778 18.631 6.06254 18.3783 6.25847L17.753 6.74356C17.2512 7.13284 16.465 7.13279 15.9632 6.74356L15.3378 6.25847C15.0853 6.0626 14.8886 5.81793 14.7691 5.55081C14.7042 5.40575 14.5365 5.30766 14.3463 5.30352C14.1749 5.29974 13.912 5.15695 13.7409 4.89129ZM13.2547 8.2117H14.527C14.6364 8.84151 15.305 9.32771 16.1113 9.32771H17.5803C18.3866 9.32771 19.0552 8.84156 19.1646 8.2117H20.4368C20.8392 8.2117 21.1666 8.47721 21.1666 8.80351V11.4851C21.1666 11.9277 21.0198 12.3629 20.742 12.7438C20.2781 13.3801 20.0328 14.1072 20.0328 14.8465V15.6566C20.0328 16.7749 20.4102 17.8719 21.1242 18.8288L21.2959 19.0589L20.6883 19.1295C18.1387 19.4257 15.5531 19.4258 13.0033 19.1295L12.3957 19.0589L12.5674 18.8287C13.2814 17.8719 13.6588 16.7749 13.6588 15.6565V14.8464C13.6588 14.1072 13.4135 13.3802 12.9496 12.7438C12.6718 12.3628 12.525 11.9276 12.525 11.4851V8.80346C12.5249 8.47721 12.8523 8.2117 13.2547 8.2117ZM11.7749 18.4398L11.6034 18.6696C11.597 18.6694 11.5908 18.6688 11.5843 18.6688C10.703 18.6688 9.8231 18.7192 8.95112 18.8168L10.4553 17.9854C10.7555 17.8194 10.9772 17.5724 11.0794 17.2895L12.4241 13.572C12.6265 13.9753 12.7324 14.4082 12.7324 14.8464V15.6565C12.7324 16.6378 12.4013 17.6003 11.7749 18.4398ZM2.41415 19.555C2.44314 19.4651 2.53535 19.3997 2.64914 19.3883L4.6969 19.184C4.96537 19.1572 5.21417 19.0536 5.39746 18.8923L8.51255 16.1513C8.68365 16.0008 8.79434 15.8143 8.83285 15.612L9.80288 10.5112C9.90908 9.95252 10.2936 9.44169 10.8578 9.10968L11.1126 8.95978C11.2649 8.87022 11.4291 8.79524 11.6009 8.73413C11.5995 8.75709 11.5987 11.4851 11.5987 11.4851C11.5987 11.8519 11.6764 12.2146 11.8257 12.5579L10.1907 17.0782C10.1486 17.1946 10.0573 17.2964 9.93366 17.3647L5.49589 19.8176C5.30376 19.9238 5.09752 20.0146 4.88287 20.0872L1.91884 21.0912L2.41415 19.555ZM1.86459 22.5069C1.86459 22.2818 1.92904 22.0615 2.05024 21.8608L4.88405 20.9009L6.449 20.8324C7.73117 20.7762 9.01664 20.8647 10.2691 21.095C10.3465 21.1062 10.7709 21.1958 10.8415 21.1908C11.053 21.1908 11.244 21.0725 11.2928 20.8982C11.3494 20.6958 11.1931 20.4947 10.9436 20.4488L10.474 20.3624C9.22936 20.1334 7.95447 20.0361 6.67982 20.0722L7.00684 19.8915C8.45077 19.5894 9.93702 19.4313 11.4282 19.421C11.4296 19.4236 11.4305 19.4262 11.432 19.4288C11.5405 19.6149 11.7554 19.7434 12.0067 19.7725L12.8718 19.873C14.1902 20.0262 15.518 20.1028 16.8457 20.1028C18.1735 20.1028 19.5011 20.0262 20.8196 19.873L21.6847 19.7725C21.9359 19.7433 22.1508 19.6148 22.2594 19.4288C22.2609 19.4263 22.2618 19.4236 22.2633 19.421C23.7543 19.4314 25.2405 19.5894 26.6845 19.8914L27.0117 20.0722C25.7371 20.0362 24.4622 20.1334 23.2175 20.3624L16.8457 21.5345L14.701 21.14C14.0183 20.8292 13.1543 20.9349 12.6175 21.4044L11.7982 22.1209C11.7136 22.1948 11.6071 22.2519 11.4901 22.2859L9.51015 22.8615C9.10405 22.9796 8.74021 23.1622 8.42869 23.4044L7.69197 23.9769H3.67722C2.67776 23.9769 1.86459 23.3175 1.86459 22.5069ZM10.9991 24.2052C10.4555 24.2421 9.92937 24.3556 9.43511 24.5425L7.67063 25.2098C7.64798 25.1187 7.68451 25.0233 7.76757 24.9587L9.06965 23.9468C9.2866 23.7781 9.54001 23.651 9.82279 23.5688L11.8027 22.9931C12.059 22.9186 12.2923 22.7937 12.4775 22.6318L13.2967 21.9152C13.5623 21.6806 14.0016 21.6514 14.3199 21.8293L15.0535 22.2009C15.271 22.311 15.5053 22.3984 15.7498 22.4606L15.7812 22.4685V23.8783L10.9991 24.2052ZM30.0143 23.9769H16.7076V22.3303L23.4225 21.0951C24.675 20.8647 25.9601 20.7763 27.2425 20.8325C27.2425 20.8325 28.7794 20.8986 28.7975 20.8977L31.6417 21.861C31.7628 22.0617 31.827 22.2824 31.827 22.5069C31.827 23.3175 31.0138 23.9769 30.0143 23.9769Z" fill="#767676"/>
</g>
<defs>
<clipPath id="clip0">
<rect width="31.8552" height="25.8339" fill="white" transform="translate(0.918213 0.35791)"/>
</clipPath>
</defs>
</svg>
