<svg width="32" height="27" viewBox="0 0 32 27" fill="none" xmlns="http://www.w3.org/2000/svg">
<g clip-path="url(#clip0)">
<path d="M15.9394 11.9829C15.8619 11.9829 15.7849 11.9692 15.7132 11.942L6.68756 8.49752C6.50174 8.42648 6.38281 8.27449 6.38281 8.10786C6.38281 7.94123 6.50174 7.78924 6.68756 7.7182L15.7132 4.27368C15.8565 4.219 16.0222 4.219 16.1655 4.27368L25.1912 7.7182C25.377 7.78924 25.4959 7.94123 25.4959 8.10786C25.4959 8.27449 25.377 8.42648 25.1912 8.49752L16.1655 11.942C16.0939 11.9692 16.0169 11.9829 15.9394 11.9829ZM8.16086 8.10786L15.9394 11.0766L23.7179 8.10786L15.9394 5.13911L8.16086 8.10786Z" fill="#767676"/>
<path d="M15.9413 15.4279C15.86 15.4279 15.7783 15.4128 15.7039 15.3827L9.33291 12.7993C9.15292 12.7261 9.03931 12.5771 9.03931 12.4139V9.12141C9.03931 8.97416 9.13222 8.83681 9.28565 8.75802C9.43909 8.67879 9.63181 8.66975 9.79587 8.73175L15.9413 11.077L22.0861 8.73175C22.2507 8.66932 22.4434 8.67879 22.5963 8.75802C22.7503 8.83681 22.8432 8.97416 22.8432 9.12141V12.4139C22.8432 12.5771 22.7296 12.7261 22.5496 12.7993L16.1786 15.3827C16.1043 15.4128 16.0225 15.4279 15.9413 15.4279ZM10.1011 12.1479L15.9413 14.516L21.7814 12.1479V9.79998L16.1674 11.9425C16.0241 11.9972 15.8584 11.9972 15.7151 11.9425L10.1011 9.79998V12.1479Z" fill="#767676"/>
<path d="M24.967 8.53935H15.9413C15.6483 8.53935 15.4104 8.34646 15.4104 8.10879C15.4104 7.87112 15.6483 7.67822 15.9413 7.67822H24.967C25.26 7.67822 25.4979 7.87112 25.4979 8.10879C25.4979 8.34646 25.26 8.53935 24.967 8.53935Z" fill="#767676"/>
<path d="M24.9652 12.4139C24.6722 12.4139 24.4343 12.2211 24.4343 11.9834V8.1083C24.4343 7.87063 24.6722 7.67773 24.9652 7.67773C25.2583 7.67773 25.4962 7.87063 25.4962 8.1083V11.9834C25.4962 12.2211 25.2583 12.4139 24.9652 12.4139Z" fill="#767676"/>
<path d="M15.9413 9.39931C15.6483 9.39931 15.4104 9.20641 15.4104 8.96874V7.24648C15.4104 7.00881 15.6483 6.81592 15.9413 6.81592C16.2344 6.81592 16.4722 7.00881 16.4722 7.24648V8.96874C16.4722 9.20641 16.2344 9.39931 15.9413 9.39931Z" fill="#767676"/>
<path d="M23.9017 13.7055C23.8008 13.7055 23.6983 13.6823 23.6075 13.6332C23.3638 13.5014 23.298 13.234 23.4605 13.036L24.5223 11.7443C24.6848 11.5462 25.0139 11.4924 25.2587 11.625C25.5024 11.7568 25.5682 12.0242 25.4058 12.2222L24.3439 13.5139C24.2414 13.6383 24.0731 13.7055 23.9017 13.7055Z" fill="#767676"/>
<path d="M26.0276 13.7055C25.8561 13.7055 25.6878 13.6383 25.5853 13.5139L24.5235 12.2222C24.361 12.0246 24.4268 11.7568 24.6705 11.625C24.9142 11.4924 25.2439 11.5462 25.4069 11.7443L26.4687 13.036C26.6312 13.2336 26.5654 13.5014 26.3217 13.6332C26.2309 13.6823 26.1284 13.7055 26.0276 13.7055Z" fill="#767676"/>
<path d="M15.9413 13.2744C15.6483 13.2744 15.4104 13.0815 15.4104 12.8438V11.5521C15.4104 11.3145 15.6483 11.1216 15.9413 11.1216C16.2344 11.1216 16.4722 11.3145 16.4722 11.5521V12.8438C16.4722 13.0815 16.2344 13.2744 15.9413 13.2744Z" fill="#767676"/>
<path d="M31.3362 17.1501H0.542883C0.249815 17.1501 0.0119629 16.9572 0.0119629 16.7195V2.51127C0.0119629 1.56144 0.964964 0.788574 2.13617 0.788574H29.7429C30.9142 0.788574 31.8672 1.56144 31.8672 2.51127V16.7195C31.8672 16.9572 31.6293 17.1501 31.3362 17.1501ZM1.0738 16.2889H30.8053V2.51127C30.8053 2.03592 30.3291 1.6497 29.7429 1.6497H2.13617C1.55004 1.6497 1.0738 2.03592 1.0738 2.51127V16.2889Z" fill="#767676"/>
<path d="M29.7429 20.5945H2.13617C0.964964 20.5945 0.0119629 19.8216 0.0119629 18.8718V16.7194C0.0119629 16.4817 0.249815 16.2888 0.542883 16.2888H31.3362C31.6293 16.2888 31.8672 16.4817 31.8672 16.7194V18.8718C31.8672 19.8216 30.9142 20.5945 29.7429 20.5945ZM1.0738 17.1499V18.8718C1.0738 19.3471 1.55004 19.7333 2.13617 19.7333H29.7429C30.3291 19.7333 30.8053 19.3471 30.8053 18.8718V17.1499H1.0738Z" fill="#767676"/>
<path d="M17.5324 18.8724H14.3468C14.0538 18.8724 13.8159 18.6795 13.8159 18.4418C13.8159 18.2041 14.0538 18.0112 14.3468 18.0112H17.5324C17.8254 18.0112 18.0633 18.2041 18.0633 18.4418C18.0633 18.6795 17.8254 18.8724 17.5324 18.8724Z" fill="#767676"/>
<path d="M29.2139 17.1495H2.66788C2.37482 17.1495 2.13696 16.9566 2.13696 16.7189V2.94082C2.13696 2.70315 2.37482 2.51025 2.66788 2.51025H29.2139C29.507 2.51025 29.7448 2.70315 29.7448 2.94082V16.7189C29.7448 16.9566 29.507 17.1495 29.2139 17.1495ZM3.1988 16.2883H28.683V3.37138H3.1988V16.2883Z" fill="#767676"/>
<path d="M22.8418 25.7611H9.03783C8.15969 25.7611 7.44507 25.1816 7.44507 24.4694C7.44507 23.7573 8.15969 23.1777 9.03783 23.1777H22.8418C23.7199 23.1777 24.4345 23.7573 24.4345 24.4694C24.4345 25.1816 23.7199 25.7611 22.8418 25.7611ZM9.03783 24.0389C8.74529 24.0389 8.50691 24.2322 8.50691 24.4694C8.50691 24.7067 8.74529 24.9 9.03783 24.9H22.8418C23.1343 24.9 23.3727 24.7067 23.3727 24.4694C23.3727 24.2322 23.1343 24.0389 22.8418 24.0389H9.03783Z" fill="#767676"/>
<path d="M21.7778 24.0386H10.0976C9.8045 24.0386 9.56665 23.8457 9.56665 23.608C9.56665 23.3703 9.8045 23.1774 10.0976 23.1774C11.8592 23.1774 12.7522 22.1635 12.7522 20.1635C12.7522 19.9258 12.99 19.7329 13.2831 19.7329H18.5923C18.8854 19.7329 19.1232 19.9258 19.1232 20.1635C19.1232 22.1635 20.0162 23.1774 21.7778 23.1774C22.0709 23.1774 22.3087 23.3703 22.3087 23.608C22.3087 23.8457 22.0709 24.0386 21.7778 24.0386ZM12.6837 23.1774H19.1922C18.5381 22.5901 18.1532 21.7157 18.0762 20.594H13.7997C13.7222 21.7157 13.3378 22.5901 12.6837 23.1774Z" fill="#767676"/>
</g>
<defs>
<clipPath id="clip0">
<rect width="31.8552" height="25.8339" fill="white" transform="translate(0.0119629 0.35791)"/>
</clipPath>
</defs>
</svg>
