<svg width="27" height="22" viewBox="0 0 27 22" fill="none" xmlns="http://www.w3.org/2000/svg">
<g clip-path="url(#clip0)">
<path d="M18.4248 8.44039H9.60823L9.46259 7.52551C9.42981 7.31968 9.21367 7.16553 8.95777 7.16553H7.04445C6.7633 7.16553 6.5354 7.35039 6.5354 7.57836C6.5354 7.80632 6.7633 7.99119 7.04445 7.99119H8.51021L9.50505 14.241C9.52459 14.3638 9.60935 14.4682 9.72893 14.5324C9.62243 14.7097 9.56267 14.9088 9.56267 15.1189C9.56267 15.8594 10.3047 16.4618 11.2168 16.4618C12.1289 16.4618 12.871 15.8594 12.871 15.1189C12.871 14.9355 12.8254 14.7605 12.743 14.601H14.2863C14.2041 14.7603 14.1586 14.9351 14.1586 15.1183C14.1586 15.8588 14.9007 16.4612 15.8128 16.4612C16.7249 16.4612 17.4669 15.8587 17.4669 15.1183C17.4669 14.841 17.3629 14.5831 17.1849 14.3689C17.2177 14.3143 17.2362 14.253 17.2362 14.1882C17.2362 13.9602 17.0083 13.7753 16.7271 13.7753H10.4575L10.3335 12.9967H17.0501C17.2751 12.9967 17.4734 12.877 17.5379 12.7021L18.9126 8.97141C18.9586 8.84644 18.9291 8.71116 18.8331 8.60659C18.737 8.50202 18.5856 8.44039 18.4248 8.44039ZM11.2168 15.6362C10.8661 15.6362 10.5808 15.4041 10.5808 15.1189C10.5808 14.8337 10.8661 14.6017 11.2168 14.6017C11.5676 14.6017 11.8529 14.8337 11.8529 15.1189C11.8529 15.4041 11.5676 15.6362 11.2168 15.6362ZM15.8128 15.6355C15.4621 15.6355 15.1768 15.4035 15.1768 15.1183C15.1768 14.8331 15.4621 14.601 15.8128 14.601C16.1636 14.601 16.4489 14.8331 16.4489 15.1183C16.4489 15.4035 16.1635 15.6355 15.8128 15.6355ZM16.6709 12.1711H10.2021L9.73967 9.26604H17.7414L16.6709 12.1711Z" fill="#767676"/>
<path d="M19.165 0.706543H6.91517C5.55988 0.706543 4.45728 1.59739 4.45728 2.69237V19.8538C4.45728 20.9509 5.55779 21.8434 6.91054 21.8434H19.1697C20.5225 21.8434 21.623 20.9509 21.623 19.8538V2.69237C21.6229 1.59739 20.5203 0.706543 19.165 0.706543ZM5.47537 2.69237C5.47537 2.05265 6.12126 1.5322 6.91517 1.5322H19.1651C19.959 1.5322 20.6049 2.05261 20.6049 2.69237V17.722H5.47537V2.69237ZM20.6048 19.8538C20.6048 20.4956 19.961 21.0177 19.1697 21.0177H6.91049C6.11917 21.0177 5.47532 20.4956 5.47532 19.8538V18.5477H20.6048V19.8538Z" fill="#767676"/>
<path d="M12.7007 20.1958H13.3794C13.6606 20.1958 13.8885 20.0109 13.8885 19.7829C13.8885 19.555 13.6606 19.3701 13.3794 19.3701H12.7007C12.4196 19.3701 12.1917 19.555 12.1917 19.7829C12.1917 20.0109 12.4196 20.1958 12.7007 20.1958Z" fill="#767676"/>
<path d="M10.6228 3.1655H15.4577C15.7389 3.1655 15.9668 2.98064 15.9668 2.75267C15.9668 2.52471 15.7389 2.33984 15.4577 2.33984H10.6228C10.3417 2.33984 10.1138 2.52471 10.1138 2.75267C10.1138 2.98064 10.3417 3.1655 10.6228 3.1655Z" fill="#767676"/>
</g>
<defs>
<clipPath id="clip0">
<rect width="26.0633" height="21.1368" fill="white" transform="translate(0.00854492 0.706543)"/>
</clipPath>
</defs>
</svg>
