<svg width="33" height="26" viewBox="0 0 33 26" fill="none" xmlns="http://www.w3.org/2000/svg">
<g clip-path="url(#clip0)">
<path d="M15.9858 11.2432H16.9813V12.0505H15.9858V11.2432Z" fill="#767676"/>
<path d="M30.4202 22.5458V10.8398C30.4202 10.171 29.7516 9.62881 28.9269 9.62881H16.9812V6.80322H15.9858V9.62881H4.04007C3.21545 9.62881 2.54686 10.171 2.54686 10.8398V22.5458H0.555908V23.7567C0.557609 24.8709 1.67071 25.7736 3.0446 25.775H29.9224C31.2963 25.7736 32.4094 24.8709 32.4111 23.7567V22.5458H30.4202ZM3.54233 10.8398C3.54233 10.6169 3.7652 10.4361 4.04007 10.4361H28.9269C29.2018 10.4361 29.4247 10.6169 29.4247 10.8398V22.5458H28.4292V11.2434H17.9767V12.0507H27.4337V22.5458H22.4564V21.4905C22.4544 20.9863 22.069 20.5352 21.4874 20.3568L18.4745 19.4405V18.1964L18.9722 17.8887V14.4727C18.9722 13.8039 18.3036 13.2617 17.479 13.2617H16.047C14.6119 13.2603 13.3605 14.0528 13.0142 15.1822L12.8596 15.6836H13.9948V17.8887L14.4926 18.1964V19.4405L11.4804 20.3568C10.8983 20.535 10.5126 20.9861 10.5107 21.4905V22.5458H5.53328V12.0507H14.9903V11.2434H4.53781V22.5458H3.54233V10.8398ZM11.5061 22.5458V21.4905C11.5061 21.3224 11.6349 21.1718 11.8291 21.1129L14.6773 20.2448C14.964 20.616 15.4479 20.8574 15.9858 20.8976V22.1421H16.9812V20.8976C17.5191 20.8574 18.003 20.616 18.2898 20.2448L21.1384 21.1111C21.3323 21.1704 21.4609 21.3208 21.4609 21.4889V22.5458H18.4745V22.9494C18.4745 23.1723 18.2516 23.3531 17.9767 23.3531H14.9903C14.7154 23.3531 14.4926 23.1723 14.4926 22.9494V22.5458H11.5061ZM16.9812 18.1056H15.9858L14.9903 17.4892V15.6836H16.9812V14.8763H14.2437C14.6335 14.3733 15.315 14.0682 16.0475 14.069H17.479C17.7539 14.069 17.9767 14.2497 17.9767 14.4727V17.4892L16.9812 18.1056ZM17.479 18.8116V19.7101C17.4729 19.7811 17.3954 20.1238 16.4835 20.1238C15.5716 20.1238 15.4936 19.7779 15.488 19.7202V18.8116L15.6518 18.9129H17.3152L17.479 18.8116ZM31.4156 23.7567C31.4156 24.4255 30.747 24.9677 29.9224 24.9677H3.0446C2.21998 24.9677 1.55138 24.4255 1.55138 23.7567V23.3531H13.5821C13.7938 23.8365 14.3577 24.1598 14.9903 24.1604H17.9767C18.6093 24.1598 19.1732 23.8365 19.3849 23.3531H31.4156V23.7567Z" fill="#767676"/>
<path d="M8.9407 8.13071C6.39028 6.05764 6.39028 2.70148 8.9407 0.62841L8.23711 0.0576172C5.29759 2.44584 5.29759 6.31328 8.23711 8.7015L8.9407 8.13071Z" fill="#767676"/>
<path d="M10.1752 7.62679L10.879 7.05599C9.06065 5.57777 9.06065 3.18501 10.879 1.70678L10.1752 1.13599C7.96796 2.92937 7.96796 5.8334 10.1752 7.62679Z" fill="#767676"/>
<path d="M12.8189 5.97938C11.7322 5.09579 11.7322 3.66605 12.8189 2.78246L12.115 2.21167C10.64 3.41061 10.64 5.35123 12.115 6.55017L12.8189 5.97938Z" fill="#767676"/>
<path d="M24.0278 8.1312L24.7314 8.70199C27.6709 6.31377 27.6709 2.44633 24.7314 0.0581055L24.0278 0.628899C26.5782 2.70197 26.5782 6.05813 24.0278 8.1312Z" fill="#767676"/>
<path d="M22.7917 7.62679C24.999 5.8334 24.999 2.92937 22.7917 1.13599L22.0879 1.70678C23.9063 3.18501 23.9063 5.57777 22.0879 7.05599L22.7917 7.62679Z" fill="#767676"/>
<path d="M20.8535 6.55042C22.3285 5.35147 22.3285 3.41086 20.8535 2.21191L20.1497 2.78271C21.2363 3.66629 21.2363 5.09604 20.1497 5.97962L20.8535 6.55042Z" fill="#767676"/>
<path d="M16.4836 5.99608C17.5831 5.99608 18.4746 5.27313 18.4746 4.38146C18.4746 3.4898 17.5831 2.76685 16.4836 2.76685C15.3841 2.76685 14.4927 3.4898 14.4927 4.38146C14.4927 5.27313 15.3841 5.99608 16.4836 5.99608ZM16.4836 3.57416C17.0334 3.57416 17.4791 3.93563 17.4791 4.38146C17.4791 4.8273 17.0334 5.18877 16.4836 5.18877C15.9339 5.18877 15.4882 4.8273 15.4882 4.38146C15.4882 3.93563 15.9339 3.57416 16.4836 3.57416Z" fill="#767676"/>
</g>
<defs>
<clipPath id="clip0">
<rect width="31.8552" height="25.8339" fill="white" transform="translate(0.555908 0.00878906)"/>
</clipPath>
</defs>
</svg>
