<svg width="33" height="26" viewBox="0 0 33 26" fill="none" xmlns="http://www.w3.org/2000/svg">
<g clip-path="url(#clip0)">
<g clip-path="url(#clip1)">
<path d="M32.256 0.458984H12.7925C12.5346 0.458984 12.3258 0.613703 12.3258 0.804805C12.3258 0.995907 12.5346 1.15063 12.7925 1.15063H31.7894V4.14774H8.47397V1.15063H10.8693C11.1272 1.15063 11.336 0.995907 11.336 0.804805C11.336 0.613703 11.1272 0.458984 10.8693 0.458984H8.00734C7.74972 0.458984 7.54071 0.613703 7.54071 0.804805L7.54096 6.31488H1.33406C1.0762 6.31488 0.867432 6.4696 0.867432 6.6607V21.1007C0.867432 21.2916 1.0762 21.4465 1.33406 21.4465C1.59192 21.4465 1.80069 21.2916 1.80069 21.1007V10.6953H28.7407C28.9986 10.6953 29.2074 10.5406 29.2074 10.3495C29.2074 10.1583 28.9986 10.0036 28.7407 10.0036H1.80069V7.00652H31.7894V10.0036H30.7212C30.4636 10.0036 30.2546 10.1583 30.2546 10.3495C30.2546 10.5406 30.4636 10.6953 30.7212 10.6953H31.7894V23.3754H1.80069V22.5915C1.80069 22.4004 1.59192 22.2457 1.33406 22.2457C1.0762 22.2457 0.867432 22.4004 0.867432 22.5915V23.7212C0.867432 23.9123 1.0762 24.067 1.33406 24.067H32.256C32.5139 24.067 32.7226 23.9123 32.7226 23.7212V0.804805C32.7226 0.613703 32.5139 0.458984 32.256 0.458984ZM8.47421 6.31488V4.83938H31.7894V6.31488H8.47421Z" fill="#767676"/>
<path d="M9.46924 2.62584C9.46924 3.19789 10.0972 3.6633 10.8691 3.6633C11.641 3.6633 12.269 3.19789 12.269 2.62584C12.269 2.0538 11.641 1.58838 10.8691 1.58838C10.0972 1.58838 9.46924 2.0538 9.46924 2.62584ZM11.3358 2.62584C11.3358 2.81658 11.1265 2.97166 10.8691 2.97166C10.6118 2.97166 10.4025 2.81658 10.4025 2.62584C10.4025 2.4351 10.6118 2.28002 10.8691 2.28002C11.1265 2.28002 11.3358 2.4351 11.3358 2.62584Z" fill="#767676"/>
<path d="M16.0022 2.62584C16.0022 2.0538 15.3742 1.58838 14.6023 1.58838C13.8304 1.58838 13.2024 2.0538 13.2024 2.62584C13.2024 3.19789 13.8304 3.6633 14.6023 3.6633C15.3742 3.6633 16.0022 3.19789 16.0022 2.62584ZM14.1357 2.62584C14.1357 2.4351 14.3449 2.28002 14.6023 2.28002C14.8597 2.28002 15.0689 2.4351 15.0689 2.62584C15.0689 2.81658 14.8597 2.97166 14.6023 2.97166C14.3449 2.97166 14.1357 2.81658 14.1357 2.62584Z" fill="#767676"/>
<path d="M19.7336 2.62633C19.7336 2.05428 19.1056 1.58887 18.3337 1.58887C17.5618 1.58887 16.9338 2.05428 16.9338 2.62633C16.9338 3.19837 17.5618 3.66379 18.3337 3.66379C19.1056 3.66379 19.7336 3.19837 19.7336 2.62633ZM17.8671 2.62633C17.8671 2.43559 18.0763 2.28051 18.3337 2.28051C18.5911 2.28051 18.8004 2.43559 18.8004 2.62633C18.8004 2.81707 18.5911 2.97215 18.3337 2.97215C18.0763 2.97215 17.8671 2.81707 17.8671 2.62633Z" fill="#767676"/>
<path d="M2.79712 8.4818C2.79712 9.05384 3.42512 9.51926 4.19701 9.51926C4.96889 9.51926 5.59689 9.05384 5.59689 8.4818C5.59689 7.90975 4.96889 7.44434 4.19701 7.44434C3.42512 7.44434 2.79712 7.90975 2.79712 8.4818ZM4.66364 8.4818C4.66364 8.67254 4.45438 8.82762 4.19701 8.82762C3.93963 8.82762 3.73038 8.67254 3.73038 8.4818C3.73038 8.29106 3.93963 8.13598 4.19701 8.13598C4.45438 8.13598 4.66364 8.29106 4.66364 8.4818Z" fill="#767676"/>
<path d="M6.52759 8.4818C6.52759 9.05384 7.15559 9.51926 7.92747 9.51926C8.69936 9.51926 9.32736 9.05384 9.32736 8.4818C9.32736 7.90975 8.69936 7.44434 7.92747 7.44434C7.15559 7.44434 6.52759 7.90975 6.52759 8.4818ZM8.3941 8.4818C8.3941 8.67254 8.18485 8.82762 7.92747 8.82762C7.6701 8.82762 7.46085 8.67254 7.46085 8.4818C7.46085 8.29106 7.6701 8.13598 7.92747 8.13598C8.18485 8.13598 8.3941 8.29106 8.3941 8.4818Z" fill="#767676"/>
<path d="M10.2622 8.48204C10.2622 9.05409 10.8902 9.5195 11.6621 9.5195C12.434 9.5195 13.062 9.05409 13.062 8.48204C13.062 7.91 12.434 7.44458 11.6621 7.44458C10.8902 7.44458 10.2622 7.91 10.2622 8.48204ZM12.1287 8.48204C12.1287 8.67278 11.9195 8.82786 11.6621 8.82786C11.4047 8.82786 11.1955 8.67278 11.1955 8.48204C11.1955 8.2913 11.4047 8.13622 11.6621 8.13622C11.9195 8.13622 12.1287 8.2913 12.1287 8.48204Z" fill="#767676"/>
<path d="M15.2958 12.8174H4.34554C4.08792 12.8174 3.87891 12.9723 3.87891 13.1632V19.9874C3.87891 20.1785 4.08792 20.3332 4.34554 20.3332H15.2958C15.5536 20.3332 15.7624 20.1785 15.7624 19.9874V13.1632C15.7624 12.9723 15.5536 12.8174 15.2958 12.8174ZM14.8291 13.509V16.4177L11.9691 18.2603L8.21394 16.1308C7.94733 15.9797 7.57062 15.9888 7.31811 16.1531L4.81216 17.7828V13.509H14.8291ZM4.81216 19.6416V18.703L7.79422 16.7637L12.869 19.6416H4.81216ZM14.8291 19.6416H14.405L12.7257 18.6895L14.8291 17.3341V19.6416Z" fill="#767676"/>
<path d="M12.3282 16.2378C13.2343 16.2378 13.9716 15.6913 13.9716 15.0197C13.9716 14.3482 13.2343 13.8018 12.3282 13.8018C11.4219 13.8018 10.6846 14.3482 10.6846 15.0197C10.6846 15.6913 11.4219 16.2378 12.3282 16.2378ZM12.3282 14.4934C12.7198 14.4934 13.0384 14.7295 13.0384 15.0197C13.0384 15.31 12.7198 15.5462 12.3282 15.5462C11.9364 15.5462 11.6178 15.31 11.6178 15.0197C11.6178 14.7295 11.9364 14.4934 12.3282 14.4934Z" fill="#767676"/>
<path d="M18.5186 16.3437H28.7201C28.9777 16.3437 29.1867 16.1888 29.1867 15.9979C29.1867 15.8068 28.9777 15.6521 28.7201 15.6521H18.5186C18.2608 15.6521 18.052 15.8068 18.052 15.9979C18.052 16.1888 18.2608 16.3437 18.5186 16.3437Z" fill="#767676"/>
<path d="M18.5186 14.3818H23.6192C23.8771 14.3818 24.0859 14.2271 24.0859 14.036C24.0859 13.8451 23.8771 13.6902 23.6192 13.6902H18.5186C18.2608 13.6902 18.052 13.8451 18.052 14.036C18.052 14.2271 18.2608 14.3818 18.5186 14.3818Z" fill="#767676"/>
<path d="M18.5186 18.0034H28.7201C28.9777 18.0034 29.1867 17.8485 29.1867 17.6576C29.1867 17.4665 28.9777 17.3118 28.7201 17.3118H18.5186C18.2608 17.3118 18.052 17.4665 18.052 17.6576C18.052 17.8485 18.2608 18.0034 18.5186 18.0034Z" fill="#767676"/>
<path d="M18.5186 19.6636H28.7201C28.9777 19.6636 29.1867 19.5087 29.1867 19.3177C29.1867 19.1266 28.9777 18.9719 28.7201 18.9719H18.5186C18.2608 18.9719 18.052 19.1266 18.052 19.3177C18.052 19.5087 18.2608 19.6636 18.5186 19.6636Z" fill="#767676"/>
<path d="M4.25806 21.8488C4.25806 22.0397 4.46682 22.1946 4.72469 22.1946H28.7216C28.9792 22.1946 29.1882 22.0397 29.1882 21.8488C29.1882 21.6576 28.9792 21.5029 28.7216 21.5029H4.72469C4.46682 21.5029 4.25806 21.6576 4.25806 21.8488Z" fill="#767676"/>
</g>
</g>
<defs>
<clipPath id="clip0">
<rect width="31.8552" height="25.8339" fill="white" transform="translate(0.867432 0.0131836)"/>
</clipPath>
<clipPath id="clip1">
<rect width="31.8552" height="23.608" fill="white" transform="translate(0.867432 0.458984)"/>
</clipPath>
</defs>
</svg>
