<svg width="33" height="26" viewBox="0 0 33 26" fill="none" xmlns="http://www.w3.org/2000/svg">
<g clip-path="url(#clip0)">
<g clip-path="url(#clip1)">
<path d="M16.1049 10.9229C16.0274 10.9229 15.9504 10.9091 15.8787 10.882L6.85309 7.43746C6.66727 7.36642 6.54834 7.21443 6.54834 7.0478C6.54834 6.88117 6.66727 6.72918 6.85309 6.65814L15.8787 3.21362C16.0221 3.15894 16.1877 3.15894 16.3311 3.21362L25.3567 6.65814C25.5425 6.72918 25.6615 6.88117 25.6615 7.0478C25.6615 7.21443 25.5425 7.36642 25.3567 7.43746L16.3311 10.882C16.2594 10.9091 16.1824 10.9229 16.1049 10.9229ZM8.32639 7.0478L16.1049 10.0166L23.8834 7.0478L16.1049 4.07905L8.32639 7.0478Z" fill="#767676"/>
<path d="M16.1068 14.3678C16.0256 14.3678 15.9438 14.3528 15.8695 14.3226L9.49843 11.7392C9.31845 11.666 9.20483 11.5171 9.20483 11.3539V8.06135C9.20483 7.9141 9.29775 7.77675 9.45118 7.69796C9.60462 7.61873 9.79734 7.60969 9.96139 7.67169L16.1068 10.017L22.2517 7.67169C22.4162 7.60926 22.609 7.61873 22.7619 7.69796C22.9158 7.77675 23.0088 7.9141 23.0088 8.06135V11.3539C23.0088 11.5171 22.8951 11.666 22.7152 11.7392L16.3441 14.3226C16.2698 14.3528 16.188 14.3678 16.1068 14.3678ZM10.2667 11.0878L16.1068 13.4559L21.9469 11.0878V8.73992L16.333 10.8824C16.1896 10.9371 16.024 10.9371 15.8806 10.8824L10.2667 8.73992V11.0878Z" fill="#767676"/>
<path d="M25.1325 7.47929H16.1068C15.8138 7.47929 15.5759 7.2864 15.5759 7.04873C15.5759 6.81106 15.8138 6.61816 16.1068 6.61816H25.1325C25.4256 6.61816 25.6634 6.81106 25.6634 7.04873C25.6634 7.2864 25.4256 7.47929 25.1325 7.47929Z" fill="#767676"/>
<path d="M25.1308 11.3539C24.8377 11.3539 24.5999 11.161 24.5999 10.9233V7.04824C24.5999 6.81057 24.8377 6.61768 25.1308 6.61768C25.4238 6.61768 25.6617 6.81057 25.6617 7.04824V10.9233C25.6617 11.161 25.4238 11.3539 25.1308 11.3539Z" fill="#767676"/>
<path d="M16.1068 8.33925C15.8138 8.33925 15.5759 8.14635 15.5759 7.90868V6.18642C15.5759 5.94875 15.8138 5.75586 16.1068 5.75586C16.3999 5.75586 16.6378 5.94875 16.6378 6.18642V7.90868C16.6378 8.14635 16.3999 8.33925 16.1068 8.33925Z" fill="#767676"/>
<path d="M24.0672 12.6454C23.9663 12.6454 23.8638 12.6222 23.7731 12.5731C23.5294 12.4414 23.4635 12.174 23.626 11.9759L24.6878 10.6842C24.8503 10.4862 25.1795 10.4323 25.4242 10.565C25.6679 10.6967 25.7337 10.9641 25.5713 11.1622L24.5094 12.4538C24.407 12.5783 24.2387 12.6454 24.0672 12.6454Z" fill="#767676"/>
<path d="M26.1931 12.6454C26.0216 12.6454 25.8533 12.5783 25.7508 12.4538L24.689 11.1622C24.5265 10.9645 24.5924 10.6967 24.836 10.565C25.0797 10.4323 25.4094 10.4862 25.5724 10.6842L26.6343 11.9759C26.7967 12.1735 26.7309 12.4414 26.4872 12.5731C26.3964 12.6222 26.294 12.6454 26.1931 12.6454Z" fill="#767676"/>
<path d="M16.1068 12.2143C15.8138 12.2143 15.5759 12.0215 15.5759 11.7838V10.4921C15.5759 10.2544 15.8138 10.0615 16.1068 10.0615C16.3999 10.0615 16.6378 10.2544 16.6378 10.4921V11.7838C16.6378 12.0215 16.3999 12.2143 16.1068 12.2143Z" fill="#767676"/>
<path d="M31.5018 16.09H0.70841C0.415342 16.09 0.17749 15.8971 0.17749 15.6594V1.45121C0.17749 0.50138 1.13049 -0.271484 2.3017 -0.271484H29.9085C31.0797 -0.271484 32.0327 0.50138 32.0327 1.45121V15.6594C32.0327 15.8971 31.7948 16.09 31.5018 16.09ZM1.23933 15.2289H30.9708V1.45121C30.9708 0.975863 30.4946 0.589646 29.9085 0.589646H2.3017C1.71557 0.589646 1.23933 0.975863 1.23933 1.45121V15.2289Z" fill="#767676"/>
<path d="M29.9085 19.5344H2.3017C1.13049 19.5344 0.17749 18.7615 0.17749 17.8117V15.6593C0.17749 15.4217 0.415342 15.2288 0.70841 15.2288H31.5018C31.7948 15.2288 32.0327 15.4217 32.0327 15.6593V17.8117C32.0327 18.7615 31.0797 19.5344 29.9085 19.5344ZM1.23933 16.0899V17.8117C1.23933 18.2871 1.71557 18.6733 2.3017 18.6733H29.9085C30.4946 18.6733 30.9708 18.2871 30.9708 17.8117V16.0899H1.23933Z" fill="#767676"/>
<path d="M17.6979 17.8123H14.5124C14.2193 17.8123 13.9814 17.6194 13.9814 17.3817C13.9814 17.1441 14.2193 16.9512 14.5124 16.9512H17.6979C17.991 16.9512 18.2288 17.1441 18.2288 17.3817C18.2288 17.6194 17.991 17.8123 17.6979 17.8123Z" fill="#767676"/>
<path d="M29.3794 16.0894H2.83341C2.54034 16.0894 2.30249 15.8965 2.30249 15.6588V1.88076C2.30249 1.64309 2.54034 1.4502 2.83341 1.4502H29.3794C29.6725 1.4502 29.9103 1.64309 29.9103 1.88076V15.6588C29.9103 15.8965 29.6725 16.0894 29.3794 16.0894ZM3.36433 15.2283H28.8485V2.31133H3.36433V15.2283Z" fill="#767676"/>
<path d="M23.0073 24.7011H9.20336C8.32521 24.7011 7.6106 24.1215 7.6106 23.4094C7.6106 22.6972 8.32521 22.1177 9.20336 22.1177H23.0073C23.8854 22.1177 24.6 22.6972 24.6 23.4094C24.6 24.1215 23.8854 24.7011 23.0073 24.7011ZM9.20336 22.9788C8.91082 22.9788 8.67244 23.1721 8.67244 23.4094C8.67244 23.6466 8.91082 23.8399 9.20336 23.8399H23.0073C23.2998 23.8399 23.5382 23.6466 23.5382 23.4094C23.5382 23.1721 23.2998 22.9788 23.0073 22.9788H9.20336Z" fill="#767676"/>
<path d="M21.9433 22.9785H10.2631C9.97003 22.9785 9.73218 22.7856 9.73218 22.5479C9.73218 22.3103 9.97003 22.1174 10.2631 22.1174C12.0247 22.1174 12.9177 21.1034 12.9177 19.1034C12.9177 18.8657 13.1555 18.6729 13.4486 18.6729H18.7578C19.0509 18.6729 19.2887 18.8657 19.2887 19.1034C19.2887 21.1034 20.1817 22.1174 21.9433 22.1174C22.2364 22.1174 22.4743 22.3103 22.4743 22.5479C22.4743 22.7856 22.2364 22.9785 21.9433 22.9785ZM12.8492 22.1174H19.3578C18.7037 21.5301 18.3187 20.6556 18.2418 19.534H13.9652C13.8877 20.6556 13.5033 21.5301 12.8492 22.1174Z" fill="#767676"/>
</g>
</g>
<defs>
<clipPath id="clip0">
<rect width="31.8552" height="25.8339" fill="white" transform="translate(0.17749 0.0134277)"/>
</clipPath>
<clipPath id="clip1">
<rect width="31.8552" height="25.8339" fill="white" transform="translate(0.17749 -0.702148)"/>
</clipPath>
</defs>
</svg>
