<svg width="33" height="26" viewBox="0 0 33 26" fill="none" xmlns="http://www.w3.org/2000/svg">
<g clip-path="url(#clip0)">
<g clip-path="url(#clip1)">
<path d="M23.505 9.10586H14.0353L13.8789 8.11499C13.8437 7.89205 13.6115 7.7251 13.3367 7.7251H11.2816C10.9796 7.7251 10.7349 7.92532 10.7349 8.17222C10.7349 8.41912 10.9796 8.61934 11.2816 8.61934H12.856L13.9245 15.3884C13.9455 15.5213 14.0365 15.6344 14.1649 15.7039C14.0506 15.896 13.9864 16.1115 13.9864 16.3392C13.9864 17.1412 14.7834 17.7936 15.7631 17.7936C16.7427 17.7936 17.5398 17.1411 17.5398 16.3392C17.5398 16.1405 17.4908 15.9509 17.4023 15.7782H19.0599C18.9716 15.9507 18.9228 16.14 18.9228 16.3385C18.9228 17.1405 19.7198 17.7929 20.6995 17.7929C21.6791 17.7929 22.4762 17.1404 22.4762 16.3385C22.4762 16.0382 22.3644 15.7588 22.1732 15.5269C22.2085 15.4677 22.2283 15.4013 22.2283 15.3311C22.2283 15.0842 21.9835 14.884 21.6816 14.884H14.9475L14.8143 14.0407H22.0284C22.2701 14.0407 22.4831 13.911 22.5523 13.7216L24.0289 9.68099C24.0783 9.54564 24.0467 9.39912 23.9435 9.28587C23.8403 9.17261 23.6777 9.10586 23.505 9.10586ZM15.7631 16.8994C15.3863 16.8994 15.0799 16.648 15.0799 16.3392C15.0799 16.0303 15.3863 15.7789 15.7631 15.7789C16.1398 15.7789 16.4462 16.0303 16.4462 16.3392C16.4463 16.648 16.1398 16.8994 15.7631 16.8994ZM20.6995 16.8987C20.3228 16.8987 20.0163 16.6474 20.0163 16.3385C20.0163 16.0296 20.3228 15.7783 20.6995 15.7783C21.0762 15.7783 21.3827 16.0296 21.3827 16.3385C21.3827 16.6474 21.0762 16.8987 20.6995 16.8987ZM21.6211 13.1465H14.6732L14.1765 10.0001H22.7709L21.6211 13.1465Z" fill="#767676"/>
<path d="M24.3021 0.729248H11.1448C9.68916 0.729248 8.50488 1.69409 8.50488 2.88004V21.4671C8.50488 22.6552 9.68692 23.6219 11.1399 23.6219H24.3072C25.7601 23.6219 26.9421 22.6552 26.9421 21.4671V2.88004C26.9421 1.69409 25.7578 0.729248 24.3021 0.729248V0.729248ZM9.5984 2.88004C9.5984 2.18718 10.2921 1.62349 11.1448 1.62349H24.3022C25.1549 1.62349 25.8486 2.18713 25.8486 2.88004V19.1582H9.5984V2.88004ZM25.8486 21.4671C25.8486 22.1621 25.1571 22.7276 24.3071 22.7276H11.1398C10.2899 22.7276 9.59834 22.1621 9.59834 21.4671V20.0524H25.8486V21.4671Z" fill="#767676"/>
<path d="M17.3602 21.8374H18.0892C18.3912 21.8374 18.636 21.6371 18.636 21.3902C18.636 21.1433 18.3912 20.9431 18.0892 20.9431H17.3602C17.0583 20.9431 16.8135 21.1433 16.8135 21.3902C16.8135 21.6371 17.0583 21.8374 17.3602 21.8374Z" fill="#767676"/>
<path d="M15.1259 3.39205H20.3189C20.6209 3.39205 20.8657 3.19182 20.8657 2.94492C20.8657 2.69802 20.6209 2.4978 20.3189 2.4978H15.1259C14.8239 2.4978 14.5791 2.69802 14.5791 2.94492C14.5791 3.19182 14.8239 3.39205 15.1259 3.39205Z" fill="#767676"/>
</g>
</g>
<defs>
<clipPath id="clip0">
<rect width="31.8551" height="25.8339" fill="white" transform="translate(0.833008 0.0134277)"/>
</clipPath>
<clipPath id="clip1">
<rect width="27.994" height="22.8926" fill="white" transform="translate(3.72754 0.729248)"/>
</clipPath>
</defs>
</svg>
