<svg width="22" height="16" viewBox="0 0 22 16" fill="none" xmlns="http://www.w3.org/2000/svg">
<path opacity="0.3" fill-rule="evenodd" clip-rule="evenodd" d="M21.6499 7.23583L14.5149 0.316533C14.0796 -0.105511 13.3735 -0.105511 12.9383 0.316533C12.5028 0.73911 12.5028 1.4235 12.9383 1.84555L18.17 6.91916H1.11477C0.499168 6.91916 0 7.40303 0 8.00035C0 8.59712 0.499168 9.08152 1.11477 9.08152H18.17L12.9384 14.1551C12.5029 14.5766 12.5029 15.2616 12.9384 15.6836C13.156 15.8944 13.4414 15.9998 13.7268 15.9998C14.0121 15.9998 14.2974 15.8944 14.515 15.6836L21.6499 8.76432C22.0853 8.34282 22.0853 7.65788 21.6499 7.23583Z" fill="#0F2137"/>
</svg>
