<svg width="1073" height="381" viewBox="0 0 1073 381" fill="none" xmlns="http://www.w3.org/2000/svg">
<g opacity="0.1">
<path d="M174.204 272.3C168.931 272.3 166.339 269.1 163.836 265.9C161.512 262.9 159.278 260.1 154.898 260.1C150.518 260.1 148.284 262.9 145.96 265.9C143.457 269 140.865 272.3 135.592 272.3C130.318 272.3 127.726 269.1 125.223 265.9C122.899 262.9 120.665 260.1 116.285 260.1C111.905 260.1 109.671 262.9 107.347 265.9C104.844 269 102.252 272.3 96.9788 272.3C91.7053 272.3 89.1132 269 86.6999 265.9C84.376 262.9 82.1415 260.1 77.7618 260.1C73.3821 260.1 71.1476 262.9 68.8237 265.9C66.321 269 63.7289 272.3 58.4554 272.3C53.1819 272.3 50.5899 269.1 48.1766 265.9C45.8527 262.9 43.6181 260.1 39.2385 260.1C34.8588 260.1 32.6242 262.9 30.3003 265.9C27.7976 269 25.2056 272.3 20.0215 272.3C14.748 272.3 12.1559 269.1 9.65322 265.9C7.32931 262.9 5.09477 260.1 0.715088 260.1V258.9C5.98859 258.9 8.58065 262.1 11.0833 265.3C13.4072 268.3 15.6418 271.1 20.0215 271.1C24.4011 271.1 26.6357 268.3 28.9596 265.3C31.4623 262.2 34.0543 258.9 39.2385 258.9C44.512 258.9 47.104 262.1 49.5173 265.3C51.8412 268.3 54.0758 271.1 58.4554 271.1C62.8351 271.1 65.0697 268.3 67.3936 265.3C69.8962 262.2 72.4883 258.9 77.7618 258.9C83.0353 258.9 85.6274 262.1 88.13 265.3C90.454 268.3 92.6885 271.1 97.0682 271.1C101.448 271.1 103.682 268.3 106.006 265.3C108.509 262.2 111.101 258.9 116.375 258.9C121.648 258.9 124.24 262.1 126.743 265.3C129.067 268.3 131.301 271.1 135.681 271.1C140.061 271.1 142.295 268.3 144.619 265.3C147.122 262.2 149.714 258.9 154.987 258.9C160.261 258.9 162.853 262.1 165.356 265.3C167.679 268.3 169.914 271.1 174.294 271.1C178.673 271.1 180.908 268.3 183.232 265.3C185.734 262.2 188.327 258.9 193.6 258.9V260.1C189.22 260.1 186.986 262.9 184.662 265.9C181.98 269 179.478 272.3 174.204 272.3Z" fill="#295271"/>
<path d="M174.204 283.1C168.931 283.1 166.339 279.9 163.836 276.7C161.512 273.7 159.277 270.9 154.898 270.9C150.518 270.9 148.283 273.7 145.96 276.7C143.457 279.8 140.865 283.1 135.591 283.1C130.318 283.1 127.726 279.9 125.223 276.7C122.899 273.7 120.665 270.9 116.285 270.9C111.905 270.9 109.671 273.7 107.347 276.7C104.844 279.8 102.252 283.1 96.9786 283.1C91.7051 283.1 89.113 279.9 86.6104 276.7C84.2864 273.7 82.0519 270.9 77.6722 270.9C73.2925 270.9 71.058 273.7 68.7341 276.7C66.2314 279.8 63.6393 283.1 58.3658 283.1C53.0923 283.1 50.5003 279.9 48.087 276.7C45.7631 273.7 43.5285 270.9 39.1488 270.9C34.7692 270.9 32.5346 273.7 30.2107 276.7C27.708 279.8 25.116 283.1 19.9319 283.1C14.6584 283.1 12.0663 279.9 9.56362 276.7C7.23971 273.7 5.00517 270.9 0.625488 270.9V269.7C5.89899 269.7 8.49105 272.9 10.9937 276.1C13.3176 279.1 15.5522 281.9 19.9319 281.9C24.3115 281.9 26.5461 279.1 28.87 276.1C31.3727 273 33.9647 269.7 39.1488 269.7C44.4223 269.7 47.0144 272.9 49.4277 276.1C51.7516 279.1 53.9862 281.9 58.3658 281.9C62.7455 281.9 64.9801 279.1 67.304 276.1C69.8067 273 72.3987 269.7 77.6722 269.7C82.9457 269.7 85.5378 272.9 88.0405 276.1C90.3644 279.1 92.5989 281.9 96.9786 281.9C101.358 281.9 103.593 279.1 105.917 276.1C108.419 273 111.011 269.7 116.285 269.7C121.558 269.7 124.151 272.9 126.653 276.1C128.977 279.1 131.212 281.9 135.591 281.9C139.971 281.9 142.206 279.1 144.529 276.1C147.032 273 149.624 269.7 154.898 269.7C160.171 269.7 162.763 272.9 165.266 276.1C167.59 279.1 169.824 281.9 174.204 281.9C178.584 281.9 180.818 279.1 183.142 276.1C185.645 273 188.237 269.7 193.51 269.7V270.9C189.131 270.9 186.896 273.7 184.572 276.7C181.98 279.8 179.478 283.1 174.204 283.1Z" fill="#295271"/>
<path d="M174.204 293.9C168.931 293.9 166.339 290.7 163.836 287.5C161.512 284.5 159.277 281.7 154.898 281.7C150.518 281.7 148.283 284.5 145.96 287.5C143.457 290.6 140.865 293.9 135.591 293.9C130.318 293.9 127.726 290.7 125.223 287.5C122.899 284.5 120.665 281.7 116.285 281.7C111.905 281.7 109.671 284.5 107.347 287.5C104.844 290.6 102.252 293.9 96.9786 293.9C91.7051 293.9 89.113 290.7 86.6104 287.5C84.2864 284.5 82.0519 281.7 77.6722 281.7C73.2925 281.7 71.058 284.5 68.7341 287.5C66.2314 290.6 63.6393 293.9 58.3658 293.9C53.0923 293.9 50.5003 290.7 48.087 287.5C45.7631 284.5 43.5285 281.7 39.1488 281.7C34.7692 281.7 32.5346 284.5 30.2107 287.5C27.708 290.6 25.116 293.9 19.9319 293.9C14.6584 293.9 12.0663 290.7 9.56362 287.5C7.23971 284.5 5.00517 281.7 0.625488 281.7V280.5C5.89899 280.5 8.49105 283.7 10.9937 286.9C13.3176 289.9 15.5522 292.7 19.9319 292.7C24.3115 292.7 26.5461 289.9 28.87 286.9C31.3727 283.8 33.9647 280.5 39.1488 280.5C44.4223 280.5 47.0144 283.7 49.4277 286.9C51.7516 289.9 53.9862 292.7 58.3658 292.7C62.7455 292.7 64.9801 289.9 67.304 286.9C69.8067 283.8 72.3987 280.5 77.6722 280.5C82.9457 280.5 85.5378 283.7 88.0405 286.9C90.3644 289.9 92.5989 292.7 96.9786 292.7C101.358 292.7 103.593 289.9 105.917 286.9C108.419 283.8 111.011 280.5 116.285 280.5C121.558 280.5 124.151 283.7 126.653 286.9C128.977 289.9 131.212 292.7 135.591 292.7C139.971 292.7 142.206 289.9 144.529 286.9C147.032 283.8 149.624 280.5 154.898 280.5C160.171 280.5 162.763 283.7 165.266 286.9C167.59 289.9 169.824 292.7 174.204 292.7C178.584 292.7 180.818 289.9 183.142 286.9C185.645 283.8 188.237 280.5 193.51 280.5V281.7C189.131 281.7 186.896 284.5 184.572 287.5C181.98 290.6 179.478 293.9 174.204 293.9Z" fill="#295271"/>
<path d="M174.204 304.7C168.931 304.7 166.339 301.5 163.836 298.3C161.512 295.3 159.277 292.5 154.898 292.5C150.518 292.5 148.283 295.3 145.96 298.3C143.457 301.4 140.865 304.7 135.591 304.7C130.318 304.7 127.726 301.5 125.223 298.3C122.899 295.3 120.665 292.5 116.285 292.5C111.905 292.5 109.671 295.3 107.347 298.3C104.844 301.4 102.252 304.7 96.9786 304.7C91.7051 304.7 89.113 301.5 86.6104 298.3C84.2864 295.3 82.0519 292.5 77.6722 292.5C73.2925 292.5 71.058 295.3 68.7341 298.3C66.2314 301.4 63.6393 304.7 58.3658 304.7C53.0923 304.7 50.5003 301.5 48.087 298.3C45.7631 295.3 43.5285 292.5 39.1488 292.5C34.7692 292.5 32.5346 295.3 30.2107 298.3C27.708 301.4 25.116 304.7 19.9319 304.7C14.6584 304.7 12.0663 301.5 9.56362 298.3C7.23971 295.3 5.00517 292.5 0.625488 292.5V291.3C5.89899 291.3 8.49105 294.5 10.9937 297.7C13.3176 300.7 15.5522 303.5 19.9319 303.5C24.3115 303.5 26.5461 300.7 28.87 297.7C31.3727 294.6 33.9647 291.3 39.1488 291.3C44.4223 291.3 47.0144 294.5 49.4277 297.7C51.7516 300.7 53.9862 303.5 58.3658 303.5C62.7455 303.5 64.9801 300.7 67.304 297.7C69.8067 294.6 72.3987 291.3 77.6722 291.3C82.9457 291.3 85.5378 294.5 88.0405 297.7C90.3644 300.7 92.5989 303.5 96.9786 303.5C101.358 303.5 103.593 300.7 105.917 297.7C108.419 294.6 111.011 291.3 116.285 291.3C121.558 291.3 124.151 294.5 126.653 297.7C128.977 300.7 131.212 303.5 135.591 303.5C139.971 303.5 142.206 300.7 144.529 297.7C147.032 294.6 149.624 291.3 154.898 291.3C160.171 291.3 162.763 294.5 165.266 297.7C167.59 300.7 169.824 303.5 174.204 303.5C178.584 303.5 180.818 300.7 183.142 297.7C185.645 294.6 188.237 291.3 193.51 291.3V292.5C189.131 292.5 186.896 295.3 184.572 298.3C181.98 301.4 179.478 304.7 174.204 304.7Z" fill="#295271"/>
<path d="M174.204 315.4C168.931 315.4 166.339 312.2 163.836 309C161.512 306 159.277 303.2 154.898 303.2C150.518 303.2 148.283 306 145.96 309C143.457 312.1 140.865 315.4 135.591 315.4C130.318 315.4 127.726 312.2 125.223 309C122.899 306 120.665 303.2 116.285 303.2C111.905 303.2 109.671 306 107.347 309C104.844 312.1 102.252 315.4 96.9786 315.4C91.7051 315.4 89.113 312.2 86.6104 309C84.2864 306 82.0519 303.2 77.6722 303.2C73.2925 303.2 71.058 306 68.7341 309C66.2314 312.1 63.6393 315.4 58.3658 315.4C53.0923 315.4 50.5003 312.2 48.087 309C45.7631 306 43.5285 303.2 39.1488 303.2C34.7692 303.2 32.5346 306 30.2107 309C27.708 312.1 25.116 315.4 19.9319 315.4C14.6584 315.4 12.0663 312.2 9.56362 309C7.23971 306 5.00517 303.2 0.625488 303.2V302C5.89899 302 8.49105 305.2 10.9937 308.4C13.3176 311.4 15.5522 314.2 19.9319 314.2C24.3115 314.2 26.5461 311.4 28.87 308.4C31.2833 305.3 33.786 302 39.0595 302C44.333 302 46.925 305.2 49.3383 308.4C51.6622 311.4 53.8968 314.2 58.2765 314.2C62.6561 314.2 64.8907 311.4 67.2146 308.4C69.8067 305.3 72.3987 302 77.6722 302C82.9457 302 85.5378 305.2 88.0405 308.4C90.3644 311.4 92.5989 314.2 96.9786 314.2C101.358 314.2 103.593 311.4 105.917 308.4C108.419 305.3 111.011 302 116.285 302C121.558 302 124.151 305.2 126.653 308.4C128.977 311.4 131.212 314.2 135.591 314.2C139.971 314.2 142.206 311.4 144.529 308.4C147.032 305.3 149.624 302 154.898 302C160.171 302 162.763 305.2 165.266 308.4C167.59 311.4 169.824 314.2 174.204 314.2C178.584 314.2 180.818 311.4 183.142 308.4C185.645 305.3 188.237 302 193.51 302V303.2C189.131 303.2 186.896 306 184.572 309C181.98 312.2 179.478 315.4 174.204 315.4Z" fill="#295271"/>
<path d="M174.204 326.2C168.931 326.2 166.339 323 163.836 319.8C161.512 316.8 159.278 314 154.898 314C150.518 314 148.284 316.8 145.96 319.8C143.457 322.9 140.865 326.2 135.592 326.2C130.318 326.2 127.726 323 125.223 319.8C122.899 316.8 120.665 314 116.285 314C111.905 314 109.671 316.8 107.347 319.8C104.844 322.9 102.252 326.2 96.9788 326.2C91.7053 326.2 89.1132 323 86.6999 319.9C84.376 316.9 82.1415 314.1 77.7618 314.1C73.3821 314.1 71.1476 316.9 68.8237 319.9C66.321 323 63.7289 326.3 58.4554 326.3C53.1819 326.3 50.5899 323.1 48.1766 319.9C45.8527 316.9 43.6181 314.1 39.2385 314.1C34.8588 314.1 32.6242 316.9 30.3003 319.9C27.7976 323 25.2056 326.3 20.0215 326.3C14.748 326.3 12.1559 323.1 9.65322 319.9C7.32931 316.9 5.09477 314.1 0.715088 314.1V312.9C5.98859 312.9 8.58065 316.1 11.0833 319.3C13.4072 322.3 15.6418 325.1 20.0215 325.1C24.4011 325.1 26.6357 322.3 28.9596 319.3C31.4623 316.2 34.0543 312.9 39.2385 312.9C44.512 312.9 47.104 316.1 49.5173 319.3C51.8412 322.3 54.0758 325.1 58.4554 325.1C62.8351 325.1 65.0697 322.3 67.3936 319.3C69.8962 316.2 72.4883 312.9 77.7618 312.9C83.0353 312.9 85.6274 316.1 88.13 319.3C90.454 322.3 92.6885 325.1 97.0682 325.1C101.448 325.1 103.682 322.3 106.006 319.3C108.509 316.2 111.101 312.9 116.375 312.9C121.648 312.9 124.24 316.1 126.743 319.3C129.067 322.3 131.301 325.1 135.681 325.1C140.061 325.1 142.295 322.3 144.619 319.3C147.122 316.2 149.714 312.9 154.987 312.9C160.261 312.9 162.853 316.1 165.356 319.3C167.679 322.3 169.914 325.1 174.294 325.1C178.673 325.1 180.908 322.3 183.232 319.3C185.734 316.2 188.327 312.9 193.6 312.9V314.1C189.22 314.1 186.986 316.9 184.662 319.9C181.98 323 179.478 326.2 174.204 326.2Z" fill="#295271"/>
<path d="M174.204 337C168.931 337 166.339 333.8 163.836 330.6C161.512 327.6 159.277 324.8 154.898 324.8C150.518 324.8 148.283 327.6 145.96 330.6C143.457 333.7 140.865 337 135.591 337C130.318 337 127.726 333.8 125.223 330.6C122.899 327.6 120.665 324.8 116.285 324.8C111.905 324.8 109.671 327.6 107.347 330.6C104.844 333.7 102.252 337 96.9786 337C91.7051 337 89.113 333.8 86.6104 330.6C84.2865 327.6 82.0519 324.8 77.6722 324.8C73.2925 324.8 71.058 327.6 68.7341 330.6C66.2314 333.7 63.6394 337 58.3659 337C53.0924 337 50.5003 333.8 48.087 330.6C45.7631 327.6 43.5286 324.8 39.1489 324.8C34.7692 324.8 32.5347 327.6 30.2107 330.6C27.6187 333.8 25.0266 337 19.8425 337C14.569 337 11.9769 333.8 9.47427 330.6C7.15035 327.6 4.91582 324.8 0.536133 324.8V323.6C5.80963 323.6 8.40169 326.8 10.9044 330C13.2283 333 15.4628 335.8 19.8425 335.8C24.2222 335.8 26.4567 333 28.7806 330C31.2833 326.9 33.8754 323.6 39.0595 323.6C44.333 323.6 46.9251 326.8 49.3383 330C51.6623 333 53.8968 335.8 58.2765 335.8C62.6562 335.8 64.8907 333 67.2146 330C69.7173 326.9 72.3094 323.6 77.5829 323.6C82.8564 323.6 85.4484 326.8 87.9511 330C90.275 333 92.5095 335.8 96.8892 335.8C101.269 335.8 103.503 333 105.827 330C108.33 326.9 110.922 323.6 116.196 323.6C121.469 323.6 124.061 326.8 126.564 330C128.888 333 131.122 335.8 135.502 335.8C139.882 335.8 142.116 333 144.44 330C146.943 326.9 149.535 323.6 154.808 323.6C160.082 323.6 162.674 326.8 165.177 330C167.5 333 169.735 335.8 174.115 335.8C178.494 335.8 180.729 333 183.053 330C185.556 326.9 188.148 323.6 193.421 323.6V324.8C189.041 324.8 186.807 327.6 184.483 330.6C181.98 333.8 179.478 337 174.204 337Z" fill="#295271"/>
<path d="M174.204 347.8C168.931 347.8 166.339 344.6 163.836 341.4C161.512 338.4 159.277 335.6 154.898 335.6C150.518 335.6 148.283 338.4 145.96 341.4C143.457 344.5 140.865 347.8 135.591 347.8C130.318 347.8 127.726 344.6 125.223 341.4C122.899 338.4 120.665 335.6 116.285 335.6C111.905 335.6 109.671 338.4 107.347 341.4C104.844 344.5 102.252 347.8 96.9786 347.8C91.7051 347.8 89.113 344.6 86.6104 341.4C84.2864 338.4 82.0519 335.6 77.6722 335.6C73.2925 335.6 71.058 338.4 68.7341 341.4C66.2314 344.5 63.6393 347.8 58.3658 347.8C53.0923 347.8 50.5003 344.6 48.087 341.4C45.7631 338.4 43.5285 335.6 39.1488 335.6C34.7692 335.6 32.5346 338.4 30.2107 341.4C27.708 344.5 25.116 347.8 19.9319 347.8C14.6584 347.8 12.0663 344.6 9.56362 341.4C7.23971 338.4 5.00517 335.6 0.625488 335.6V334.4C5.89899 334.4 8.49105 337.6 10.9937 340.8C13.3176 343.8 15.5522 346.6 19.9319 346.6C24.3115 346.6 26.5461 343.8 28.87 340.8C31.3727 337.7 33.9647 334.4 39.1488 334.4C44.4223 334.4 47.0144 337.6 49.4277 340.8C51.7516 343.8 53.9862 346.6 58.3658 346.6C62.7455 346.6 64.9801 343.8 67.304 340.8C69.8067 337.7 72.3987 334.4 77.6722 334.4C82.9457 334.4 85.5378 337.6 88.0405 340.8C90.3644 343.8 92.5989 346.6 96.9786 346.6C101.358 346.6 103.593 343.8 105.917 340.8C108.419 337.7 111.011 334.4 116.285 334.4C121.558 334.4 124.151 337.6 126.653 340.8C128.977 343.8 131.212 346.6 135.591 346.6C139.971 346.6 142.206 343.8 144.529 340.8C147.032 337.7 149.624 334.4 154.898 334.4C160.171 334.4 162.763 337.6 165.266 340.8C167.59 343.8 169.824 346.6 174.204 346.6C178.584 346.6 180.818 343.8 183.142 340.8C185.645 337.7 188.237 334.4 193.51 334.4V335.6C189.131 335.6 186.896 338.4 184.572 341.4C181.98 344.6 179.478 347.8 174.204 347.8Z" fill="#295271"/>
<path d="M174.204 358.6C168.931 358.6 166.339 355.4 163.836 352.2C161.512 349.2 159.277 346.4 154.898 346.4C150.518 346.4 148.283 349.2 145.96 352.2C143.457 355.3 140.865 358.6 135.591 358.6C130.318 358.6 127.726 355.4 125.223 352.2C122.899 349.2 120.665 346.4 116.285 346.4C111.905 346.4 109.671 349.2 107.347 352.2C104.844 355.3 102.252 358.6 96.9786 358.6C91.7051 358.6 89.113 355.4 86.6104 352.2C84.2864 349.2 82.0519 346.4 77.6722 346.4C73.2925 346.4 71.058 349.2 68.7341 352.2C66.2314 355.3 63.6393 358.6 58.3658 358.6C53.0923 358.6 50.5003 355.4 48.087 352.2C45.7631 349.2 43.5285 346.4 39.1488 346.4C34.7692 346.4 32.5346 349.2 30.2107 352.2C27.708 355.3 25.116 358.6 19.9319 358.6C14.6584 358.6 12.0663 355.4 9.56362 352.2C7.23971 349.2 5.00517 346.4 0.625488 346.4V345.2C5.89899 345.2 8.49105 348.4 10.9937 351.6C13.3176 354.6 15.5522 357.4 19.9319 357.4C24.3115 357.4 26.5461 354.6 28.87 351.6C31.3727 348.5 33.9647 345.2 39.1488 345.2C44.4223 345.2 47.0144 348.4 49.4277 351.6C51.7516 354.6 53.9862 357.4 58.3658 357.4C62.7455 357.4 64.9801 354.6 67.304 351.6C69.8067 348.5 72.3987 345.2 77.6722 345.2C82.9457 345.2 85.5378 348.4 88.0405 351.6C90.3644 354.6 92.5989 357.4 96.9786 357.4C101.358 357.4 103.593 354.6 105.917 351.6C108.419 348.5 111.011 345.2 116.285 345.2C121.558 345.2 124.151 348.4 126.653 351.6C128.977 354.6 131.212 357.4 135.591 357.4C139.971 357.4 142.206 354.6 144.529 351.6C147.032 348.5 149.624 345.2 154.898 345.2C160.171 345.2 162.763 348.4 165.266 351.6C167.59 354.6 169.824 357.4 174.204 357.4C178.584 357.4 180.818 354.6 183.142 351.6C185.645 348.5 188.237 345.2 193.51 345.2V346.4C189.131 346.4 186.896 349.2 184.572 352.2C181.98 355.4 179.478 358.6 174.204 358.6Z" fill="#295271"/>
<path d="M174.204 369.4C168.931 369.4 166.339 366.2 163.836 363C161.512 360 159.277 357.2 154.898 357.2C150.518 357.2 148.283 360 145.96 363C143.457 366.1 140.865 369.4 135.591 369.4C130.318 369.4 127.726 366.2 125.223 363C122.899 360 120.665 357.2 116.285 357.2C111.905 357.2 109.671 360 107.347 363C104.844 366.1 102.252 369.4 96.9786 369.4C91.7051 369.4 89.113 366.2 86.6104 363C84.2864 360 82.0519 357.2 77.6722 357.2C73.2925 357.2 71.058 360 68.7341 363C66.2314 366.1 63.6393 369.4 58.3658 369.4C53.0923 369.4 50.5003 366.2 48.087 363C45.7631 360 43.5285 357.2 39.1488 357.2C34.7692 357.2 32.5346 360 30.2107 363C27.708 366.1 25.116 369.4 19.9319 369.4C14.6584 369.4 12.0663 366.2 9.56362 363C7.23971 360 5.00517 357.2 0.625488 357.2V356C5.89899 356 8.49105 359.2 10.9937 362.4C13.3176 365.4 15.5522 368.2 19.9319 368.2C24.3115 368.2 26.5461 365.4 28.87 362.4C31.3727 359.3 33.9647 356 39.1488 356C44.4223 356 47.0144 359.2 49.4277 362.4C51.7516 365.4 53.9862 368.2 58.3658 368.2C62.7455 368.2 64.9801 365.4 67.304 362.4C69.8067 359.3 72.3987 356 77.6722 356C82.9457 356 85.5378 359.2 88.0405 362.4C90.3644 365.4 92.5989 368.2 96.9786 368.2C101.358 368.2 103.593 365.4 105.917 362.4C108.419 359.3 111.011 356 116.285 356C121.558 356 124.151 359.2 126.653 362.4C128.977 365.4 131.212 368.2 135.591 368.2C139.971 368.2 142.206 365.4 144.529 362.4C147.032 359.3 149.624 356 154.898 356C160.171 356 162.763 359.2 165.266 362.4C167.59 365.4 169.824 368.2 174.204 368.2C178.584 368.2 180.818 365.4 183.142 362.4C185.645 359.3 188.237 356 193.51 356V357.2C189.131 357.2 186.896 360 184.572 363C181.98 366.2 179.478 369.4 174.204 369.4Z" fill="#295271"/>
<path d="M174.204 380.2C168.931 380.2 166.339 377 163.836 373.8C161.512 370.8 159.277 368 154.898 368C150.518 368 148.283 370.8 145.96 373.8C143.457 376.9 140.865 380.2 135.591 380.2C130.318 380.2 127.726 377 125.223 373.8C122.899 370.8 120.665 368 116.285 368C111.905 368 109.671 370.8 107.347 373.8C104.844 376.9 102.252 380.2 96.9786 380.2C91.7051 380.2 89.113 377 86.6104 373.8C84.2864 370.8 82.0519 368 77.6722 368C73.2925 368 71.058 370.8 68.7341 373.8C66.2314 376.9 63.6393 380.2 58.3658 380.2C53.0923 380.2 50.5003 377 48.087 373.8C45.7631 370.8 43.5285 368 39.1488 368C34.7692 368 32.5346 370.8 30.2107 373.8C27.708 376.9 25.116 380.2 19.9319 380.2C14.6584 380.2 12.0663 377 9.56362 373.8C7.23971 370.8 5.00517 368 0.625488 368V366.8C5.89899 366.8 8.49105 370 10.9937 373.2C13.3176 376.2 15.5522 379 19.9319 379C24.3115 379 26.5461 376.2 28.87 373.2C31.3727 370.1 33.9647 366.8 39.1488 366.8C44.4223 366.8 47.0144 370 49.4277 373.2C51.7516 376.2 53.9862 379 58.3658 379C62.7455 379 64.9801 376.2 67.304 373.2C69.8067 370.1 72.3987 366.8 77.6722 366.8C82.9457 366.8 85.5378 370 88.0405 373.2C90.3644 376.2 92.5989 379 96.9786 379C101.358 379 103.593 376.2 105.917 373.2C108.419 370.1 111.011 366.8 116.285 366.8C121.558 366.8 124.151 370 126.653 373.2C128.977 376.2 131.212 379 135.591 379C139.971 379 142.206 376.2 144.529 373.2C147.032 370.1 149.624 366.8 154.898 366.8C160.171 366.8 162.763 370 165.266 373.2C167.59 376.2 169.824 379 174.204 379C178.584 379 180.818 376.2 183.142 373.2C185.645 370.1 188.237 366.8 193.51 366.8V368C189.131 368 186.896 370.8 184.572 373.8C181.98 377 179.478 380.2 174.204 380.2Z" fill="#295271"/>
<path d="M173.668 271.4C168.394 271.4 165.802 268.2 163.3 265C160.976 262 158.741 259.2 154.362 259.2C149.982 259.2 147.747 262 145.423 265C142.921 268.1 140.329 271.4 135.055 271.4C129.782 271.4 127.19 268.2 124.687 265C122.363 262 120.129 259.2 115.749 259.2C111.369 259.2 109.135 262 106.811 265C104.308 268.1 101.716 271.4 96.4425 271.4C91.169 271.4 88.6663 268.2 86.1636 265C83.8397 262 81.6052 259.2 77.2255 259.2C72.7564 259.2 70.6113 262 68.198 265C65.6953 268.1 63.1032 271.4 57.8297 271.4C52.5562 271.4 49.9642 268.2 47.5509 265C45.227 262 42.9924 259.2 38.6127 259.2C34.2331 259.2 31.9985 262 29.6746 265C27.1719 268.1 24.5799 271.4 19.3958 271.4C14.1223 271.4 11.5302 268.2 9.02752 265C6.61422 262 4.37969 259.2 0 259.2V258C5.2735 258 7.86556 261.2 10.3682 264.4C12.6922 267.4 14.9267 270.2 19.3064 270.2C23.6861 270.2 25.9206 267.4 28.2445 264.4C30.7472 261.2 33.3392 258 38.6127 258C43.8862 258 46.4783 261.2 48.8916 264.4C51.2155 267.4 53.45 270.2 57.8297 270.2C62.2094 270.2 64.4439 267.4 66.7679 264.4C69.3599 261.2 71.952 258 77.1361 258C82.4096 258 85.0017 261.2 87.5043 264.4C89.8283 267.4 92.0628 270.2 96.4425 270.2C100.822 270.2 103.057 267.4 105.381 264.4C107.883 261.3 110.475 258 115.749 258C121.022 258 123.614 261.2 126.117 264.4C128.441 267.4 130.676 270.2 135.055 270.2C139.435 270.2 141.669 267.4 143.993 264.4C146.496 261.3 149.088 258 154.362 258C159.635 258 162.227 261.2 164.73 264.4C167.054 267.4 169.288 270.2 173.668 270.2C178.048 270.2 180.282 267.4 182.606 264.4C185.109 261.2 187.701 258 192.974 258V259.2C188.595 259.2 186.36 262 184.036 265C181.534 268.2 178.941 271.4 173.668 271.4Z" fill="#295271"/>
<path d="M173.668 282.2C168.394 282.2 165.802 279 163.3 275.8C160.976 272.8 158.741 270 154.362 270C149.982 270 147.747 272.8 145.423 275.8C142.921 278.9 140.329 282.2 135.055 282.2C129.782 282.2 127.19 279 124.687 275.8C122.363 272.8 120.129 270 115.749 270C111.369 270 109.135 272.8 106.811 275.8C104.308 278.9 101.716 282.2 96.4425 282.2C91.169 282.2 88.5769 279 86.0742 275.8C83.7503 272.8 81.5158 270 77.1361 270C72.7564 270 70.5219 272.8 68.198 275.8C65.6953 278.9 63.1032 282.2 57.8297 282.2C52.5562 282.2 49.9642 279 47.5509 275.8C45.227 272.8 42.9924 270 38.6127 270C34.2331 270 31.9985 272.8 29.6746 275.8C27.1719 278.9 24.5799 282.2 19.3958 282.2C14.1223 282.2 11.5302 279 9.02752 275.8C6.61422 272.8 4.37969 270 0 270V268.8C5.2735 268.8 7.86556 272 10.3682 275.2C12.6922 278.2 14.9267 281 19.3064 281C23.6861 281 25.9206 278.2 28.2445 275.2C30.7472 272.1 33.3392 268.8 38.5234 268.8C43.7969 268.8 46.3889 272 48.8022 275.2C51.1261 278.2 53.3607 281 57.7403 281C62.12 281 64.3546 278.2 66.6785 275.2C69.1812 272.1 71.7732 268.8 77.0467 268.8C82.3202 268.8 84.9123 272 87.415 275.2C89.7389 278.2 91.9734 281 96.3531 281C100.733 281 102.967 278.2 105.291 275.2C107.794 272.1 110.386 268.8 115.659 268.8C120.933 268.8 123.525 272 126.028 275.2C128.352 278.2 130.586 281 134.966 281C139.346 281 141.58 278.2 143.904 275.2C146.407 272.1 148.999 268.8 154.272 268.8C159.546 268.8 162.138 272 164.64 275.2C166.964 278.2 169.199 281 173.579 281C177.958 281 180.193 278.2 182.517 275.2C185.019 272.1 187.611 268.8 192.885 268.8V270C188.505 270 186.271 272.8 183.947 275.8C181.534 278.9 178.941 282.2 173.668 282.2Z" fill="#295271"/>
<path d="M173.668 293C168.394 293 165.802 289.8 163.3 286.6C160.976 283.6 158.741 280.8 154.362 280.8C149.982 280.8 147.747 283.6 145.423 286.6C142.921 289.7 140.329 293 135.055 293C129.782 293 127.19 289.8 124.687 286.6C122.363 283.6 120.128 280.8 115.749 280.8C111.369 280.8 109.135 283.6 106.811 286.6C104.308 289.7 101.716 293 96.4424 293C91.1689 293 88.5769 289.8 86.0742 286.6C83.7503 283.6 81.5158 280.8 77.1361 280.8C72.7564 280.8 70.5219 283.6 68.1979 286.6C65.6953 289.7 63.1032 293 57.8297 293C52.5562 293 49.9641 289.8 47.5508 286.6C45.2269 283.6 42.9924 280.8 38.6127 280.8C34.233 280.8 31.9985 283.6 29.6746 286.6C27.1719 289.7 24.5798 293 19.3957 293C14.1222 293 11.5302 289.8 9.02749 286.6C6.70358 283.6 4.46904 280.8 0.0893555 280.8V279.6C5.36285 279.6 7.95491 282.8 10.4576 286C12.7815 289 15.016 291.8 19.3957 291.8C23.7754 291.8 26.0099 289 28.3339 286C30.8365 282.9 33.4286 279.6 38.6127 279.6C43.8862 279.6 46.4783 282.8 48.8916 286C51.2155 289 53.45 291.8 57.8297 291.8C62.2094 291.8 64.4439 289 66.7678 286C69.2705 282.9 71.8626 279.6 77.1361 279.6C82.4096 279.6 85.0016 282.8 87.5043 286C89.8282 289 92.0628 291.8 96.4424 291.8C100.822 291.8 103.057 289 105.381 286C107.883 282.9 110.475 279.6 115.749 279.6C121.022 279.6 123.614 282.8 126.117 286C128.441 289 130.675 291.8 135.055 291.8C139.435 291.8 141.669 289 143.993 286C146.496 282.9 149.088 279.6 154.362 279.6C159.635 279.6 162.227 282.8 164.73 286C167.054 289 169.288 291.8 173.668 291.8C178.048 291.8 180.282 289 182.606 286C185.109 282.9 187.701 279.6 192.974 279.6V280.8C188.595 280.8 186.36 283.6 184.036 286.6C181.533 289.7 178.941 293 173.668 293Z" fill="#295271"/>
<path d="M173.668 303.8C168.394 303.8 165.802 300.6 163.3 297.4C160.976 294.4 158.741 291.6 154.362 291.6C149.982 291.6 147.747 294.4 145.423 297.4C142.921 300.5 140.329 303.8 135.055 303.8C129.782 303.8 127.19 300.6 124.687 297.4C122.363 294.4 120.128 291.6 115.749 291.6C111.369 291.6 109.135 294.4 106.811 297.4C104.308 300.5 101.716 303.8 96.4424 303.8C91.1689 303.8 88.5769 300.6 86.0742 297.4C83.7503 294.4 81.5158 291.6 77.1361 291.6C72.7564 291.6 70.5219 294.4 68.1979 297.4C65.6953 300.5 63.1032 303.8 57.8297 303.8C52.5562 303.8 49.9641 300.6 47.5508 297.4C45.2269 294.4 42.9924 291.6 38.6127 291.6C34.233 291.6 31.9985 294.4 29.6746 297.4C27.1719 300.5 24.5798 303.8 19.3957 303.8C14.1222 303.8 11.5302 300.6 9.02749 297.4C6.70358 294.4 4.46904 291.6 0.0893555 291.6V290.4C5.36285 290.4 7.95491 293.6 10.4576 296.8C12.7815 299.8 15.016 302.6 19.3957 302.6C23.7754 302.6 26.0099 299.8 28.3339 296.8C30.8365 293.7 33.4286 290.4 38.6127 290.4C43.8862 290.4 46.4783 293.6 48.8916 296.8C51.2155 299.8 53.45 302.6 57.8297 302.6C62.2094 302.6 64.4439 299.8 66.7678 296.8C69.2705 293.7 71.8626 290.4 77.1361 290.4C82.4096 290.4 85.0016 293.6 87.5043 296.8C89.8282 299.8 92.0628 302.6 96.4424 302.6C100.822 302.6 103.057 299.8 105.381 296.8C107.883 293.7 110.475 290.4 115.749 290.4C121.022 290.4 123.614 293.6 126.117 296.8C128.441 299.8 130.675 302.6 135.055 302.6C139.435 302.6 141.669 299.8 143.993 296.8C146.496 293.7 149.088 290.4 154.362 290.4C159.635 290.4 162.227 293.6 164.73 296.8C167.054 299.8 169.288 302.6 173.668 302.6C178.048 302.6 180.282 299.8 182.606 296.8C185.109 293.7 187.701 290.4 192.974 290.4V291.6C188.595 291.6 186.36 294.4 184.036 297.4C181.533 300.5 178.941 303.8 173.668 303.8Z" fill="#295271"/>
<path d="M173.668 314.6C168.394 314.6 165.802 311.4 163.3 308.2C160.976 305.2 158.741 302.4 154.362 302.4C149.982 302.4 147.747 305.2 145.423 308.2C142.921 311.3 140.329 314.6 135.055 314.6C129.782 314.6 127.19 311.4 124.687 308.2C122.363 305.2 120.128 302.4 115.749 302.4C111.369 302.4 109.135 305.2 106.811 308.2C104.308 311.3 101.716 314.6 96.4424 314.6C91.1689 314.6 88.5769 311.4 86.0742 308.2C83.7503 305.2 81.5158 302.4 77.1361 302.4C72.7564 302.4 70.5219 305.2 68.1979 308.2C65.6953 311.3 63.1032 314.6 57.8297 314.6C52.5562 314.6 49.9641 311.4 47.5508 308.2C45.2269 305.2 42.9924 302.4 38.6127 302.4C34.233 302.4 31.9985 305.2 29.6746 308.2C27.1719 311.3 24.5798 314.6 19.3957 314.6C14.1222 314.6 11.5302 311.4 9.02749 308.2C6.70358 305.2 4.46904 302.4 0.0893555 302.4V301.2C5.36285 301.2 7.95491 304.4 10.4576 307.6C12.7815 310.6 15.016 313.4 19.3957 313.4C23.7754 313.4 26.0099 310.6 28.3339 307.6C30.8365 304.5 33.4286 301.2 38.6127 301.2C43.8862 301.2 46.4783 304.4 48.8916 307.6C51.2155 310.6 53.45 313.4 57.8297 313.4C62.2094 313.4 64.4439 310.6 66.7678 307.6C69.2705 304.5 71.8626 301.2 77.1361 301.2C82.4096 301.2 85.0016 304.4 87.5043 307.6C89.8282 310.6 92.0628 313.4 96.4424 313.4C100.822 313.4 103.057 310.6 105.381 307.6C107.883 304.5 110.475 301.2 115.749 301.2C121.022 301.2 123.614 304.4 126.117 307.6C128.441 310.6 130.675 313.4 135.055 313.4C139.435 313.4 141.669 310.6 143.993 307.6C146.496 304.5 149.088 301.2 154.362 301.2C159.635 301.2 162.227 304.4 164.73 307.6C167.054 310.6 169.288 313.4 173.668 313.4C178.048 313.4 180.282 310.6 182.606 307.6C185.109 304.5 187.701 301.2 192.974 301.2V302.4C188.595 302.4 186.36 305.2 184.036 308.2C181.533 311.3 178.941 314.6 173.668 314.6Z" fill="#295271"/>
<path d="M173.668 325.4C168.394 325.4 165.802 322.2 163.3 319C160.976 316 158.741 313.2 154.362 313.2C149.982 313.2 147.747 316 145.423 319C142.921 322.1 140.329 325.4 135.055 325.4C129.782 325.4 127.19 322.2 124.687 319C122.363 316 120.128 313.2 115.749 313.2C111.369 313.2 109.135 316 106.811 319C104.308 322.1 101.716 325.4 96.4424 325.4C91.1689 325.4 88.5769 322.2 86.0742 319C83.7503 316 81.5158 313.2 77.1361 313.2C72.7564 313.2 70.5219 316 68.1979 319C65.6953 322.1 63.1032 325.4 57.8297 325.4C52.5562 325.4 49.9641 322.2 47.5508 319C45.2269 316 42.9924 313.2 38.6127 313.2C34.233 313.2 31.9985 316 29.6746 319C27.1719 322.1 24.5798 325.4 19.3957 325.4C14.1222 325.4 11.5302 322.2 9.02749 319C6.70358 316 4.46904 313.2 0.0893555 313.2V312C5.36285 312 7.95491 315.2 10.4576 318.4C12.7815 321.4 15.016 324.2 19.3957 324.2C23.7754 324.2 26.0099 321.4 28.3339 318.4C30.8365 315.3 33.4286 312 38.6127 312C43.8862 312 46.4783 315.2 48.8916 318.4C51.2155 321.4 53.45 324.2 57.8297 324.2C62.2094 324.2 64.4439 321.4 66.7678 318.4C69.2705 315.3 71.8626 312 77.1361 312C82.4096 312 85.0016 315.2 87.5043 318.4C89.8282 321.4 92.0628 324.2 96.4424 324.2C100.822 324.2 103.057 321.4 105.381 318.4C107.883 315.3 110.475 312 115.749 312C121.022 312 123.614 315.2 126.117 318.4C128.441 321.4 130.675 324.2 135.055 324.2C139.435 324.2 141.669 321.4 143.993 318.4C146.496 315.3 149.088 312 154.362 312C159.635 312 162.227 315.2 164.73 318.4C167.054 321.4 169.288 324.2 173.668 324.2C178.048 324.2 180.282 321.4 182.606 318.4C185.109 315.3 187.701 312 192.974 312V313.2C188.595 313.2 186.36 316 184.036 319C181.533 322.1 178.941 325.4 173.668 325.4Z" fill="#295271"/>
<path d="M173.668 336.2C168.394 336.2 165.802 333 163.3 329.8C160.976 326.8 158.741 324 154.362 324C149.982 324 147.747 326.8 145.423 329.8C142.921 332.9 140.329 336.2 135.055 336.2C129.782 336.2 127.19 333 124.687 329.8C122.363 326.8 120.129 324 115.749 324C111.369 324 109.135 326.8 106.811 329.8C104.308 332.9 101.716 336.2 96.4425 336.2C91.169 336.2 88.5769 333 86.0742 329.8C83.7503 326.8 81.5158 324 77.1361 324C72.7564 324 70.5219 326.8 68.198 329.8C65.6953 332.9 63.1032 336.2 57.8297 336.2C52.5562 336.2 49.9642 333 47.5509 329.8C45.227 326.8 42.9924 324 38.6127 324C34.2331 324 31.9985 326.8 29.6746 329.8C27.1719 332.9 24.5799 336.2 19.3958 336.2C14.1223 336.2 11.5302 333 9.02752 329.8C6.61422 326.8 4.37969 324 0 324V322.8C5.2735 322.8 7.86556 326 10.3682 329.2C12.6922 332.2 14.9267 335 19.3064 335C23.6861 335 25.9206 332.2 28.2445 329.2C30.7472 326.1 33.3392 322.8 38.5234 322.8C43.7969 322.8 46.3889 326 48.8022 329.2C51.1261 332.2 53.3607 335 57.7403 335C62.12 335 64.3546 332.2 66.6785 329.2C69.1812 326.1 71.7732 322.8 77.0467 322.8C82.3202 322.8 84.9123 326 87.415 329.2C89.7389 332.2 91.9734 335 96.3531 335C100.733 335 102.967 332.2 105.291 329.2C107.794 326.1 110.386 322.8 115.659 322.8C120.933 322.8 123.525 326 126.028 329.2C128.352 332.2 130.586 335 134.966 335C139.346 335 141.58 332.2 143.904 329.2C146.407 326.1 148.999 322.8 154.272 322.8C159.546 322.8 162.138 326 164.64 329.2C166.964 332.2 169.199 335 173.579 335C177.958 335 180.193 332.2 182.517 329.2C185.019 326.1 187.611 322.8 192.885 322.8V324C188.505 324 186.271 326.8 183.947 329.8C181.534 332.9 178.941 336.2 173.668 336.2Z" fill="#295271"/>
<path d="M173.668 347C168.394 347 165.802 343.8 163.3 340.6C160.976 337.6 158.741 334.8 154.362 334.8C149.982 334.8 147.747 337.6 145.423 340.6C142.921 343.7 140.329 347 135.055 347C129.782 347 127.19 343.8 124.687 340.6C122.363 337.6 120.128 334.8 115.749 334.8C111.369 334.8 109.135 337.6 106.811 340.6C104.308 343.7 101.716 347 96.4424 347C91.1689 347 88.5769 343.8 86.0742 340.6C83.7503 337.6 81.5158 334.8 77.1361 334.8C72.7564 334.8 70.5219 337.6 68.1979 340.6C65.6953 343.7 63.1032 347 57.8297 347C52.5562 347 49.9641 343.8 47.5508 340.6C45.2269 337.6 42.9924 334.8 38.6127 334.8C34.233 334.8 31.9985 337.6 29.6746 340.6C27.1719 343.7 24.5798 347 19.3957 347C14.1222 347 11.5302 343.8 9.02749 340.6C6.70358 337.6 4.46904 334.8 0.0893555 334.8V333.6C5.36285 333.6 7.95491 336.8 10.4576 340C12.7815 343 15.016 345.8 19.3957 345.8C23.7754 345.8 26.0099 343 28.3339 340C30.8365 336.9 33.4286 333.6 38.6127 333.6C43.8862 333.6 46.4783 336.8 48.8916 340C51.2155 343 53.45 345.8 57.8297 345.8C62.2094 345.8 64.4439 343 66.7678 340C69.2705 336.9 71.8626 333.6 77.1361 333.6C82.4096 333.6 85.0016 336.8 87.5043 340C89.8282 343 92.0628 345.8 96.4424 345.8C100.822 345.8 103.057 343 105.381 340C107.883 336.9 110.475 333.6 115.749 333.6C121.022 333.6 123.614 336.8 126.117 340C128.441 343 130.675 345.8 135.055 345.8C139.435 345.8 141.669 343 143.993 340C146.496 336.9 149.088 333.6 154.362 333.6C159.635 333.6 162.227 336.8 164.73 340C167.054 343 169.288 345.8 173.668 345.8C178.048 345.8 180.282 343 182.606 340C185.109 336.9 187.701 333.6 192.974 333.6V334.8C188.595 334.8 186.36 337.6 184.036 340.6C181.533 343.7 178.941 347 173.668 347Z" fill="#295271"/>
<path d="M173.668 357.8C168.394 357.8 165.802 354.6 163.3 351.4C160.976 348.4 158.741 345.6 154.362 345.6C149.982 345.6 147.747 348.4 145.423 351.4C142.921 354.5 140.329 357.8 135.055 357.8C129.782 357.8 127.19 354.6 124.687 351.4C122.363 348.4 120.128 345.6 115.749 345.6C111.369 345.6 109.135 348.4 106.811 351.4C104.308 354.5 101.716 357.8 96.4424 357.8C91.1689 357.8 88.5769 354.6 86.0742 351.4C83.7503 348.4 81.5158 345.6 77.1361 345.6C72.7564 345.6 70.5219 348.4 68.1979 351.4C65.6953 354.5 63.1032 357.8 57.8297 357.8C52.5562 357.8 49.9641 354.6 47.5508 351.4C45.2269 348.4 42.9924 345.6 38.6127 345.6C34.233 345.6 31.9985 348.4 29.6746 351.4C27.1719 354.5 24.5798 357.8 19.3957 357.8C14.1222 357.8 11.5302 354.6 9.02749 351.4C6.70358 348.4 4.46904 345.6 0.0893555 345.6V344.4C5.36285 344.4 7.95491 347.6 10.4576 350.8C12.7815 353.8 15.016 356.6 19.3957 356.6C23.7754 356.6 26.0099 353.8 28.3339 350.8C30.8365 347.7 33.4286 344.4 38.6127 344.4C43.8862 344.4 46.4783 347.6 48.8916 350.8C51.2155 353.8 53.45 356.6 57.8297 356.6C62.2094 356.6 64.4439 353.8 66.7678 350.8C69.2705 347.7 71.8626 344.4 77.1361 344.4C82.4096 344.4 85.0016 347.6 87.5043 350.8C89.8282 353.8 92.0628 356.6 96.4424 356.6C100.822 356.6 103.057 353.8 105.381 350.8C107.883 347.7 110.475 344.4 115.749 344.4C121.022 344.4 123.614 347.6 126.117 350.8C128.441 353.8 130.675 356.6 135.055 356.6C139.435 356.6 141.669 353.8 143.993 350.8C146.496 347.7 149.088 344.4 154.362 344.4C159.635 344.4 162.227 347.6 164.73 350.8C167.054 353.8 169.288 356.6 173.668 356.6C178.048 356.6 180.282 353.8 182.606 350.8C185.109 347.7 187.701 344.4 192.974 344.4V345.6C188.595 345.6 186.36 348.4 184.036 351.4C181.533 354.5 178.941 357.8 173.668 357.8Z" fill="#295271"/>
<path d="M173.668 368.6C168.394 368.6 165.802 365.4 163.3 362.2C160.976 359.2 158.741 356.4 154.362 356.4C149.982 356.4 147.747 359.2 145.423 362.2C142.921 365.3 140.329 368.6 135.055 368.6C129.782 368.6 127.19 365.4 124.687 362.2C122.363 359.2 120.128 356.4 115.749 356.4C111.369 356.4 109.135 359.2 106.811 362.2C104.308 365.3 101.716 368.6 96.4424 368.6C91.1689 368.6 88.5769 365.4 86.0742 362.2C83.7503 359.2 81.5158 356.4 77.1361 356.4C72.7564 356.4 70.5219 359.2 68.1979 362.2C65.6953 365.3 63.1032 368.6 57.8297 368.6C52.5562 368.6 49.9641 365.4 47.5508 362.2C45.2269 359.2 42.9924 356.4 38.6127 356.4C34.233 356.4 31.9985 359.2 29.6746 362.2C27.1719 365.3 24.5798 368.6 19.3957 368.6C14.1222 368.6 11.5302 365.4 9.02749 362.2C6.70358 359.2 4.46904 356.4 0.0893555 356.4V355.2C5.36285 355.2 7.95491 358.4 10.4576 361.6C12.7815 364.6 15.016 367.4 19.3957 367.4C23.7754 367.4 26.0099 364.6 28.3339 361.6C30.8365 358.5 33.4286 355.2 38.6127 355.2C43.8862 355.2 46.4783 358.4 48.8916 361.6C51.2155 364.6 53.45 367.4 57.8297 367.4C62.2094 367.4 64.4439 364.6 66.7678 361.6C69.2705 358.5 71.8626 355.2 77.1361 355.2C82.4096 355.2 85.0016 358.4 87.5043 361.6C89.8282 364.6 92.0628 367.4 96.4424 367.4C100.822 367.4 103.057 364.6 105.381 361.6C107.883 358.5 110.475 355.2 115.749 355.2C121.022 355.2 123.614 358.4 126.117 361.6C128.441 364.6 130.675 367.4 135.055 367.4C139.435 367.4 141.669 364.6 143.993 361.6C146.496 358.5 149.088 355.2 154.362 355.2C159.635 355.2 162.227 358.4 164.73 361.6C167.054 364.6 169.288 367.4 173.668 367.4C178.048 367.4 180.282 364.6 182.606 361.6C185.109 358.5 187.701 355.2 192.974 355.2V356.4C188.595 356.4 186.36 359.2 184.036 362.2C181.533 365.3 178.941 368.6 173.668 368.6Z" fill="#295271"/>
<path d="M173.668 379.3C168.394 379.3 165.802 376.1 163.3 372.9C160.976 369.9 158.741 367.1 154.362 367.1C149.982 367.1 147.747 369.9 145.423 372.9C142.921 376 140.329 379.3 135.055 379.3C129.782 379.3 127.19 376.1 124.687 372.9C122.363 369.9 120.128 367.1 115.749 367.1C111.369 367.1 109.135 369.9 106.811 372.9C104.308 376 101.716 379.3 96.4424 379.3C91.1689 379.3 88.5769 376.1 86.0742 372.9C83.7503 369.9 81.5158 367.1 77.1361 367.1C72.7564 367.1 70.5219 369.9 68.1979 372.9C65.6953 376 63.1032 379.3 57.8297 379.3C52.5562 379.3 49.9641 376.1 47.5508 372.9C45.2269 369.9 42.9924 367.1 38.6127 367.1C34.233 367.1 31.9985 369.9 29.6746 372.9C27.1719 376 24.5798 379.3 19.3957 379.3C14.1222 379.3 11.5302 376.1 9.02749 372.9C6.70358 369.9 4.46904 367.1 0.0893555 367.1V365.9C5.36285 365.9 7.95491 369.1 10.4576 372.3C12.7815 375.3 15.016 378.1 19.3957 378.1C23.7754 378.1 26.0099 375.3 28.3339 372.3C30.8365 369.2 33.4286 365.9 38.6127 365.9C43.8862 365.9 46.4783 369.1 48.8916 372.3C51.2155 375.3 53.45 378.1 57.8297 378.1C62.2094 378.1 64.4439 375.3 66.7678 372.3C69.2705 369.2 71.8626 365.9 77.1361 365.9C82.4096 365.9 85.0016 369.1 87.5043 372.3C89.8282 375.3 92.0628 378.1 96.4424 378.1C100.822 378.1 103.057 375.3 105.381 372.3C107.883 369.2 110.475 365.9 115.749 365.9C121.022 365.9 123.614 369.1 126.117 372.3C128.441 375.3 130.675 378.1 135.055 378.1C139.435 378.1 141.669 375.3 143.993 372.3C146.496 369.2 149.088 365.9 154.362 365.9C159.635 365.9 162.227 369.1 164.73 372.3C167.054 375.3 169.288 378.1 173.668 378.1C178.048 378.1 180.282 375.3 182.606 372.3C185.109 369.2 187.701 365.9 192.974 365.9V367.1C188.595 367.1 186.36 369.9 184.036 372.9C181.533 376.1 178.941 379.3 173.668 379.3Z" fill="#295271"/>
</g>
<rect x="934.707" y="138.594" width="195" height="195" transform="rotate(-45 934.707 138.594)" stroke="#DAE2E8"/>
<rect x="942.539" y="138.594" width="183.927" height="183.927" transform="rotate(-45 942.539 138.594)" stroke="#DAE2E8"/>
<rect x="950.367" y="138.594" width="173.96" height="173.96" transform="rotate(-45 950.367 138.594)" stroke="#DAE2E8"/>
<rect x="956.633" y="138.594" width="165.102" height="165.102" transform="rotate(-45 956.633 138.594)" stroke="#DAE2E8"/>
<rect x="964.462" y="138.594" width="154.028" height="154.028" transform="rotate(-45 964.462 138.594)" stroke="#DAE2E8"/>
<rect x="972.293" y="138.594" width="142.955" height="142.955" transform="rotate(-45 972.293 138.594)" stroke="#DAE2E8"/>
<rect x="980.122" y="138.594" width="131.881" height="131.881" transform="rotate(-45 980.122 138.594)" stroke="#DAE2E8"/>
<rect x="987.952" y="138.594" width="120.808" height="120.808" transform="rotate(-45 987.952 138.594)" stroke="#DAE2E8"/>
<rect x="997.348" y="138.594" width="107.52" height="107.52" transform="rotate(-45 997.348 138.594)" stroke="#DAE2E8"/>
<rect x="1005.18" y="138.594" width="96.4463" height="96.4463" transform="rotate(-45 1005.18 138.594)" stroke="#DAE2E8"/>
<rect x="1013.01" y="138.594" width="85.3729" height="85.3729" transform="rotate(-45 1013.01 138.594)" stroke="#DAE2E8"/>
<rect x="1020.84" y="138.594" width="74.2994" height="74.2994" transform="rotate(-45 1020.84 138.594)" stroke="#DAE2E8"/>
<rect x="1027.1" y="138.594" width="65.4407" height="65.4407" transform="rotate(-45 1027.1 138.594)" stroke="#DAE2E8"/>
<rect x="1034.93" y="138.594" width="54.3672" height="54.3672" transform="rotate(-45 1034.93 138.594)" stroke="#DAE2E8"/>
<rect x="1041.2" y="138.594" width="45.5085" height="45.5085" transform="rotate(-45 1041.2 138.594)" stroke="#DAE2E8"/>
<rect x="1047.46" y="138.594" width="36.6497" height="36.6497" transform="rotate(-45 1047.46 138.594)" stroke="#DAE2E8"/>
<rect x="1052.16" y="138.594" width="30.0056" height="30.0056" transform="rotate(-45 1052.16 138.594)" stroke="#DAE2E8"/>
<rect x="1058.42" y="138.594" width="21.1469" height="21.1469" transform="rotate(-45 1058.42 138.594)" stroke="#DAE2E8"/>
<rect x="1064.69" y="138.594" width="12.2881" height="12.2881" transform="rotate(-45 1064.69 138.594)" stroke="#DAE2E8"/>
<rect y="0.707107" width="5.64407" height="5.64407" transform="matrix(-0.707107 0.707107 0.707107 0.707107 1072.88 134.104)" stroke="#DAE2E8"/>
</svg>
