<svg width="1747" height="911" viewBox="0 0 1747 911" fill="none" xmlns="http://www.w3.org/2000/svg">
<rect x="1470.3" y="139.508" width="195" height="195" rx="97.5" transform="rotate(-45 1470.3 139.508)" stroke="#DAE2E8"/>
<rect x="1478.13" y="139.508" width="183.927" height="183.927" rx="91.9633" transform="rotate(-45 1478.13 139.508)" stroke="#DAE2E8"/>
<rect x="1485.96" y="139.508" width="173.96" height="173.96" rx="86.9802" transform="rotate(-45 1485.96 139.508)" stroke="#DAE2E8"/>
<rect x="1492.23" y="139.508" width="165.102" height="165.102" rx="82.5508" transform="rotate(-45 1492.23 139.508)" stroke="#DAE2E8"/>
<rect x="1500.06" y="139.508" width="154.028" height="154.028" rx="77.0141" transform="rotate(-45 1500.06 139.508)" stroke="#DAE2E8"/>
<rect x="1507.89" y="139.508" width="142.955" height="142.955" rx="71.4774" transform="rotate(-45 1507.89 139.508)" stroke="#DAE2E8"/>
<rect x="1515.72" y="139.508" width="131.881" height="131.881" rx="65.9407" transform="rotate(-45 1515.72 139.508)" stroke="#DAE2E8"/>
<rect x="1523.55" y="139.508" width="120.808" height="120.808" rx="60.404" transform="rotate(-45 1523.55 139.508)" stroke="#DAE2E8"/>
<rect x="1532.94" y="139.508" width="107.52" height="107.52" rx="53.7599" transform="rotate(-45 1532.94 139.508)" stroke="#DAE2E8"/>
<rect x="1540.77" y="139.508" width="96.4463" height="96.4463" rx="48.2232" transform="rotate(-45 1540.77 139.508)" stroke="#DAE2E8"/>
<rect x="1548.6" y="139.508" width="85.3729" height="85.3729" rx="42.6864" transform="rotate(-45 1548.6 139.508)" stroke="#DAE2E8"/>
<rect x="1556.43" y="139.508" width="74.2994" height="74.2994" rx="37.1497" transform="rotate(-45 1556.43 139.508)" stroke="#DAE2E8"/>
<rect x="1562.7" y="139.508" width="65.4407" height="65.4407" rx="32.7203" transform="rotate(-45 1562.7 139.508)" stroke="#DAE2E8"/>
<rect x="1570.53" y="139.508" width="54.3672" height="54.3672" rx="27.1836" transform="rotate(-45 1570.53 139.508)" stroke="#DAE2E8"/>
<rect x="1576.79" y="139.508" width="45.5085" height="45.5085" rx="22.7542" transform="rotate(-45 1576.79 139.508)" stroke="#DAE2E8"/>
<rect x="1583.05" y="139.508" width="36.6497" height="36.6497" rx="18.3249" transform="rotate(-45 1583.05 139.508)" stroke="#DAE2E8"/>
<rect x="1587.75" y="139.508" width="30.0056" height="30.0056" rx="15.0028" transform="rotate(-45 1587.75 139.508)" stroke="#DAE2E8"/>
<rect x="1594.02" y="139.508" width="21.1469" height="21.1469" rx="10.5734" transform="rotate(-45 1594.02 139.508)" stroke="#DAE2E8"/>
<rect x="1600.28" y="139.508" width="12.2881" height="12.2881" rx="6.14407" transform="rotate(-45 1600.28 139.508)" stroke="#DAE2E8"/>
<rect y="0.707107" width="5.64407" height="5.64407" rx="2.82203" transform="matrix(-0.707107 0.707107 0.707107 0.707107 1608.47 135.017)" stroke="#DAE2E8"/>
<path d="M983.551 146.32L975.01 89.4613L1020.88 51.9142L983.551 146.32Z" fill="#DAE2E8"/>
<path d="M1623.52 849.141L1677.46 829.222L1688.25 770.932L1623.52 849.141Z" fill="#DAE2E8"/>
<path d="M734.615 765.99C752.589 781.659 822.373 827.639 926.426 714.495C952.295 686.364 909.076 663.87 888.909 692.572C876.312 710.481 899.793 750.229 942.779 704.612C985.631 659.159 1036.87 623.688 1082.81 643.205" stroke="#E1E1EC" stroke-width="2" stroke-miterlimit="10" stroke-dasharray="8.04 8.04"/>
<rect x="-131.699" y="771.508" width="195" height="195" transform="rotate(-45 -131.699 771.508)" stroke="#DAE2E8"/>
<rect x="-123.867" y="771.508" width="183.927" height="183.927" transform="rotate(-45 -123.867 771.508)" stroke="#DAE2E8"/>
<rect x="-116.039" y="771.508" width="173.96" height="173.96" transform="rotate(-45 -116.039 771.508)" stroke="#DAE2E8"/>
<rect x="-109.773" y="771.508" width="165.102" height="165.102" transform="rotate(-45 -109.773 771.508)" stroke="#DAE2E8"/>
<rect x="-101.945" y="771.508" width="154.028" height="154.028" transform="rotate(-45 -101.945 771.508)" stroke="#DAE2E8"/>
<rect x="-94.1132" y="771.508" width="142.955" height="142.955" transform="rotate(-45 -94.1132 771.508)" stroke="#DAE2E8"/>
<rect x="-86.2846" y="771.508" width="131.881" height="131.881" transform="rotate(-45 -86.2846 771.508)" stroke="#DAE2E8"/>
<rect x="-78.4545" y="771.508" width="120.808" height="120.808" transform="rotate(-45 -78.4545 771.508)" stroke="#DAE2E8"/>
<rect x="-69.058" y="771.508" width="107.52" height="107.52" transform="rotate(-45 -69.058 771.508)" stroke="#DAE2E8"/>
<rect x="-61.2265" y="771.508" width="96.4463" height="96.4463" transform="rotate(-45 -61.2265 771.508)" stroke="#DAE2E8"/>
<rect x="-53.3979" y="771.508" width="85.3729" height="85.3729" transform="rotate(-45 -53.3979 771.508)" stroke="#DAE2E8"/>
<rect x="-45.5663" y="771.508" width="74.2994" height="74.2994" transform="rotate(-45 -45.5663 771.508)" stroke="#DAE2E8"/>
<rect x="-39.3036" y="771.508" width="65.4407" height="65.4407" transform="rotate(-45 -39.3036 771.508)" stroke="#DAE2E8"/>
<rect x="-31.4736" y="771.508" width="54.3672" height="54.3672" transform="rotate(-45 -31.4736 771.508)" stroke="#DAE2E8"/>
<rect x="-25.2099" y="771.508" width="45.5085" height="45.5085" transform="rotate(-45 -25.2099 771.508)" stroke="#DAE2E8"/>
<rect x="-18.9457" y="771.508" width="36.6497" height="36.6497" transform="rotate(-45 -18.9457 771.508)" stroke="#DAE2E8"/>
<rect x="-14.246" y="771.508" width="30.0056" height="30.0056" transform="rotate(-45 -14.246 771.508)" stroke="#DAE2E8"/>
<rect x="-7.98332" y="771.508" width="21.1469" height="21.1469" transform="rotate(-45 -7.98332 771.508)" stroke="#DAE2E8"/>
<rect x="-1.71916" y="771.508" width="12.2881" height="12.2881" transform="rotate(-45 -1.71916 771.508)" stroke="#DAE2E8"/>
<rect y="0.707107" width="5.64407" height="5.64407" transform="matrix(-0.707107 0.707107 0.707107 0.707107 6.46875 767.018)" stroke="#DAE2E8"/>
<path d="M761.72 676.454L790.327 678.814L785.519 673.345L768.731 675.105L783.744 671.326L783.74 671.321L783.746 671.327L787.75 666.972L781.049 668.261L777.634 664.376L761.72 676.454Z" fill="#DAE2E8"/>
</svg>
