<svg width="58" height="58" viewBox="0 0 58 58" fill="none" xmlns="http://www.w3.org/2000/svg">
<path fill-rule="evenodd" clip-rule="evenodd" d="M25.0827 1.05724H32.8677C45.7663 1.05724 56.2226 11.6902 56.2226 24.8072V32.7239C56.2226 45.8404 45.7663 56.4738 32.8677 56.4738H25.0827C12.1841 56.4738 1.72772 45.8404 1.72772 32.7239V24.8072C1.72772 11.6902 12.1841 1.05724 25.0827 1.05724Z" fill="url(#paint0_linear)"/>
<path fill-rule="evenodd" clip-rule="evenodd" d="M31.6517 33.2279C31.8167 33.0576 31.8993 32.8567 31.8993 32.6243V30.48H40.6573V36.9134C40.6573 37.5025 40.4532 38.0077 40.0447 38.4273C39.6364 38.8474 39.1454 39.0572 38.5721 39.0572H19.3876C18.8141 39.0572 18.3232 38.8474 17.9148 38.4273C17.5064 38.0077 17.3023 37.5025 17.3023 36.9134V30.48H26.0604V32.6243C26.0604 32.8567 26.143 33.0576 26.3081 33.2279C26.4731 33.3973 26.6686 33.4824 26.8947 33.4824H31.0651C31.291 33.4824 31.4866 33.3973 31.6517 33.2279ZM30.6482 30.48H27.3115V32.1953H30.6482V30.48ZM40.043 22.533C39.6347 22.1125 39.1437 21.9027 38.5704 21.9027H33.9826V19.7584C33.9826 19.4008 33.8611 19.0973 33.6177 18.8467C33.3746 18.5972 33.079 18.4717 32.7317 18.4717H25.2247C24.8771 18.4717 24.5818 18.5972 24.3385 18.8467C24.0952 19.0969 23.9735 19.4008 23.9735 19.7584V21.9027H19.3859C18.8124 21.9027 18.3215 22.1125 17.9131 22.533C17.5046 22.9523 17.3005 23.457 17.3005 24.047V29.1936H40.6555V24.047C40.6555 23.457 40.4515 22.9523 40.043 22.533ZM32.3145 21.9027H25.6417V20.187H32.3145V21.9027Z" fill="white"/>
<defs>
<linearGradient id="paint0_linear" x1="33.1894" y1="90.0511" x2="90.3147" y2="25.429" gradientUnits="userSpaceOnUse">
<stop stop-color="#416BFF"/>
<stop offset="1" stop-color="#2B33FF"/>
</linearGradient>
</defs>
</svg>
