<svg width="1920" height="984" viewBox="0 0 1920 984" fill="none" xmlns="http://www.w3.org/2000/svg">
<path d="M-0.40625 0.757324H1919.59V983.594H-0.40625V0.757324Z" fill="#F9FAFC"/>
<rect x="-126.699" y="702.508" width="195" height="195" transform="rotate(-45 -126.699 702.508)" stroke="#DAE2E8"/>
<rect x="-118.867" y="702.508" width="183.927" height="183.927" transform="rotate(-45 -118.867 702.508)" stroke="#DAE2E8"/>
<rect x="-111.039" y="702.508" width="173.96" height="173.96" transform="rotate(-45 -111.039 702.508)" stroke="#DAE2E8"/>
<rect x="-104.773" y="702.508" width="165.102" height="165.102" transform="rotate(-45 -104.773 702.508)" stroke="#DAE2E8"/>
<rect x="-96.9447" y="702.508" width="154.028" height="154.028" transform="rotate(-45 -96.9447 702.508)" stroke="#DAE2E8"/>
<rect x="-89.1132" y="702.508" width="142.955" height="142.955" transform="rotate(-45 -89.1132 702.508)" stroke="#DAE2E8"/>
<rect x="-81.2846" y="702.508" width="131.881" height="131.881" transform="rotate(-45 -81.2846 702.508)" stroke="#DAE2E8"/>
<rect x="-73.4545" y="702.508" width="120.808" height="120.808" transform="rotate(-45 -73.4545 702.508)" stroke="#DAE2E8"/>
<rect x="-64.058" y="702.508" width="107.52" height="107.52" transform="rotate(-45 -64.058 702.508)" stroke="#DAE2E8"/>
<rect x="-56.2265" y="702.508" width="96.4463" height="96.4463" transform="rotate(-45 -56.2265 702.508)" stroke="#DAE2E8"/>
<rect x="-48.3979" y="702.508" width="85.3729" height="85.3729" transform="rotate(-45 -48.3979 702.508)" stroke="#DAE2E8"/>
<rect x="-40.5663" y="702.508" width="74.2994" height="74.2994" transform="rotate(-45 -40.5663 702.508)" stroke="#DAE2E8"/>
<rect x="-34.3036" y="702.508" width="65.4407" height="65.4407" transform="rotate(-45 -34.3036 702.508)" stroke="#DAE2E8"/>
<rect x="-26.4736" y="702.508" width="54.3672" height="54.3672" transform="rotate(-45 -26.4736 702.508)" stroke="#DAE2E8"/>
<rect x="-20.2099" y="702.508" width="45.5085" height="45.5085" transform="rotate(-45 -20.2099 702.508)" stroke="#DAE2E8"/>
<rect x="-13.9457" y="702.508" width="36.6497" height="36.6497" transform="rotate(-45 -13.9457 702.508)" stroke="#DAE2E8"/>
<rect x="-9.24602" y="702.508" width="30.0056" height="30.0056" transform="rotate(-45 -9.24602 702.508)" stroke="#DAE2E8"/>
<rect x="-2.98332" y="702.508" width="21.1469" height="21.1469" transform="rotate(-45 -2.98332 702.508)" stroke="#DAE2E8"/>
<rect x="3.28084" y="702.508" width="12.2881" height="12.2881" transform="rotate(-45 3.28084 702.508)" stroke="#DAE2E8"/>
<rect y="0.707107" width="5.64407" height="5.64407" transform="matrix(-0.707107 0.707107 0.707107 0.707107 11.4688 698.018)" stroke="#DAE2E8"/>
<path d="M808.292 647.332C805.659 653.8 801.605 659.609 796.568 664.109C792.282 667.955 787.115 670.98 781.529 672.955L782.72 674.906C788.479 672.786 793.667 669.71 798.062 665.784C803.349 661.052 807.6 654.967 810.366 648.182C813.131 641.397 814.325 634.07 813.838 626.985C813.703 624.989 813.431 623.025 813.037 621.097C819.179 612.995 822.988 603.534 826.167 594.432C826.945 592.22 827.703 589.953 828.433 587.77C831.122 579.79 833.899 571.548 837.864 564.031C842.337 555.549 848.593 547.743 855.959 541.454C863.53 534.987 871.987 530.227 881.101 527.313C884.843 526.126 888.687 525.255 892.539 524.718L891.277 522.653C887.584 523.236 883.977 524.067 880.426 525.204C874.873 526.975 869.547 529.418 864.524 532.486C861.042 534.613 857.696 537.048 854.51 539.765C846.939 546.232 840.497 554.269 835.89 563.002C831.848 570.671 829.034 579.001 826.326 587.057C825.596 589.241 824.832 591.498 824.058 593.695C821.127 602.071 817.675 610.725 812.345 618.253C810.355 611.08 806.585 604.759 801.449 600.2C797.644 596.814 792.992 594.415 788 593.257C782.825 592.054 777.635 592.283 772.987 593.933C768.226 595.612 764.013 598.957 761.092 603.328C758.101 607.82 756.804 612.99 757.421 617.892C758.101 623.304 761.084 628.381 765.82 632.178C770.298 635.768 776.061 637.932 781.645 638.114C787.054 638.287 792.506 636.969 797.82 634.207C802.631 631.712 807.16 628.071 810.92 623.684C811.002 623.582 811.089 623.489 811.17 623.387C811.37 624.611 811.506 625.861 811.592 627.115C812.067 633.881 810.924 640.863 808.292 647.332ZM809.242 622.239C805.663 626.411 801.358 629.863 796.796 632.232C791.817 634.815 786.743 636.046 781.721 635.886C776.619 635.723 771.331 633.738 767.229 630.443C762.949 627.007 760.255 622.446 759.644 617.618C758.517 608.716 764.716 599.233 773.746 596.031C777.986 594.525 782.747 594.322 787.509 595.425C792.139 596.504 796.445 598.722 799.979 601.855C805.19 606.473 808.908 613.075 810.633 620.54C810.183 621.129 809.715 621.689 809.242 622.239Z" fill="#DAE2E8"/>
</svg>
