<svg width="58" height="58" viewBox="0 0 58 58" fill="none" xmlns="http://www.w3.org/2000/svg">
<path fill-rule="evenodd" clip-rule="evenodd" d="M25.0826 1.05724H32.8677C45.7663 1.05724 56.2227 11.6902 56.2227 24.8072V32.7239C56.2227 45.8404 45.7663 56.4738 32.8677 56.4738H25.0826C12.1841 56.4738 1.72767 45.8404 1.72767 32.7239V24.8072C1.72767 11.6902 12.1841 1.05724 25.0826 1.05724Z" fill="url(#paint0_linear)"/>
<path fill-rule="evenodd" clip-rule="evenodd" d="M42.6332 25.4863C42.6377 25.5672 42.6319 25.6494 42.612 25.7319L40.8353 32.9884C40.7456 33.3536 40.4247 33.6111 40.0558 33.6132L29.3954 33.6681C29.3941 33.6681 29.3928 33.6681 29.3913 33.6681H18.7309C18.36 33.6681 18.0369 33.4098 17.9474 33.0425L16.1706 25.7583C16.1501 25.674 16.1442 25.5893 16.1494 25.5063C15.462 25.2854 14.9622 24.6287 14.9622 23.8549C14.9622 22.8994 15.7229 22.1226 16.6581 22.1226C17.5933 22.1226 18.354 22.8994 18.354 23.8549C18.354 24.3925 18.1127 24.8734 17.7349 25.1918L19.9593 27.48C20.5216 28.0584 21.3017 28.3904 22.0998 28.3904C23.0435 28.3904 23.9433 27.9324 24.5099 27.1658L28.1657 22.2196C27.8586 21.9064 27.6684 21.4735 27.6684 20.996C27.6684 20.0409 28.4291 19.2637 29.3643 19.2637C30.2995 19.2637 31.0603 20.0409 31.0603 20.996C31.0603 21.4591 30.8803 21.8791 30.5892 22.1903C30.5902 22.1916 30.5914 22.1928 30.5923 22.1941L34.2216 27.1539C34.788 27.9277 35.691 28.3904 36.6374 28.3904C37.4429 28.3904 38.2003 28.0699 38.7698 27.4885L41.0083 25.2024C40.6225 24.8845 40.3746 24.3993 40.3746 23.8549C40.3746 22.8994 41.1355 22.1226 42.0707 22.1226C43.0058 22.1226 43.7666 22.8994 43.7666 23.8549C43.7666 24.6078 43.2922 25.2488 42.6332 25.4863ZM40.6619 36.2517C40.6619 35.7967 40.3002 35.4273 39.8542 35.4273H18.9643C18.5183 35.4273 18.1566 35.7967 18.1566 36.2517V38.2309C18.1566 38.6867 18.5183 39.0557 18.9643 39.0557H39.8542C40.3002 39.0557 40.6619 38.6867 40.6619 38.2309V36.2517Z" fill="white"/>
<defs>
<linearGradient id="paint0_linear" x1="33.1894" y1="90.0511" x2="90.3147" y2="25.429" gradientUnits="userSpaceOnUse">
<stop stop-color="#5873FF"/>
<stop offset="1" stop-color="#5A57F8"/>
</linearGradient>
</defs>
</svg>
