<svg width="42" height="36" viewBox="0 0 42 36" fill="none" xmlns="http://www.w3.org/2000/svg">
<path d="M39.7677 23.8709C36.4052 21.9376 32.5797 20.8376 28.6172 20.543C29.4288 20.9061 30.2453 21.2611 31.014 21.7029C31.9077 22.2173 32.6243 22.9596 33.1513 23.8208C35.0347 24.3439 36.8457 25.0746 38.5237 26.0388C38.8753 26.2414 39.0938 26.6479 39.0938 27.1008V32.9138H34.0938V35.4138H40.3438C41.0348 35.4138 41.5938 34.8547 41.5938 34.1638V27.1008C41.5939 25.7544 40.8932 24.5167 39.7677 23.8709Z" fill="#373DCC"/>
<path d="M28.7675 23.871C20.8989 19.347 10.2886 19.347 2.41988 23.871C1.29318 24.5192 0.59375 25.7558 0.59375 27.101V34.164C0.59375 34.8549 1.15282 35.414 1.84376 35.414H29.3437C30.0346 35.414 30.5937 34.8549 30.5937 34.164V27.0998C30.5937 25.7558 29.8942 24.5192 28.7675 23.871ZM28.0937 32.914H3.09384V27.101C3.09384 26.6481 3.31237 26.2416 3.6651 26.039C10.7793 21.9496 20.4082 21.9496 27.5225 26.039C27.8753 26.2416 28.0937 26.6481 28.0937 27.0998V32.914Z" fill="#373DCC"/>
<path d="M25.9718 2.97287C26.1792 2.95117 26.3846 2.91415 26.5944 2.91415C30.0405 2.91415 32.8444 5.71813 32.8444 9.16413C32.8444 12.6101 30.0404 15.4141 26.5944 15.4141C26.3847 15.4141 26.1793 15.3769 25.972 15.3552C25.4416 16.1561 24.7923 16.8598 24.0802 17.4998C24.8943 17.7505 25.7343 17.914 26.5944 17.914C31.4186 17.914 35.3444 13.9883 35.3444 9.16405C35.3444 4.3398 31.4186 0.414062 26.5944 0.414062C25.7341 0.414062 24.8941 0.577653 24.0801 0.828337C24.7921 1.4684 25.4414 2.17197 25.9718 2.97287Z" fill="#373DCC"/>
<path d="M15.5937 17.9141C20.4179 17.9141 24.3437 13.9883 24.3437 9.16407C24.3437 4.33981 20.418 0.414062 15.5937 0.414062C10.7695 0.414062 6.84375 4.33981 6.84375 9.16407C6.84375 13.9883 10.7696 17.9141 15.5937 17.9141ZM15.5937 2.91408C19.0398 2.91408 21.8437 5.71806 21.8437 9.16407C21.8437 12.6101 19.0397 15.4141 15.5937 15.4141C12.1477 15.4141 9.34377 12.6101 9.34377 9.16407C9.34377 5.71806 12.1477 2.91408 15.5937 2.91408Z" fill="#373DCC"/>
</svg>
