<svg width="46" height="35" viewBox="0 0 46 35" fill="none" xmlns="http://www.w3.org/2000/svg">
<path d="M7.90937 15.6472C6.97129 16.5853 6.97129 18.112 7.90937 19.0593C8.84744 19.9973 10.3741 19.9973 11.3214 19.0593C17.8143 12.5663 28.3815 12.5663 34.8744 19.0593C35.3435 19.5283 35.9596 19.7674 36.5758 19.7674C37.192 19.7674 37.8082 19.5283 38.2772 19.0593C39.2153 18.1212 39.2153 16.5945 38.2772 15.6472C29.9081 7.26895 16.2785 7.26895 7.90937 15.6472Z" fill="#373DCC"/>
<path d="M14.4211 22.1586C13.483 23.0967 13.483 24.6233 14.4211 25.5706C15.3592 26.5087 16.8858 26.5087 17.8331 25.5706C20.7301 22.6644 25.4573 22.6644 28.3543 25.5706C28.8233 26.0396 29.4395 26.2788 30.0557 26.2788C30.6719 26.2788 31.288 26.0396 31.7571 25.5706C32.6952 24.6325 32.6952 23.1059 31.7571 22.1678C26.9839 17.3763 19.2034 17.3763 14.4211 22.1586Z" fill="#373DCC"/>
<path d="M23.0937 34.0317C24.8664 34.0317 26.3034 32.5947 26.3034 30.822C26.3034 29.0493 24.8664 27.6123 23.0937 27.6123C21.3211 27.6123 19.884 29.0493 19.884 30.822C19.884 32.5947 21.3211 34.0317 23.0937 34.0317Z" fill="#373DCC"/>
<path d="M44.8902 9.02537C32.87 -2.98567 13.3175 -2.98567 1.29731 9.02537C0.359231 9.96344 0.359231 11.4901 1.29731 12.4374C2.23538 13.3755 3.76205 13.3755 4.70932 12.4374C14.8442 2.2933 31.3433 2.2933 41.4874 12.4374C41.9564 12.9064 42.5726 13.1455 43.1888 13.1455C43.805 13.1455 44.4212 12.9064 44.8902 12.4374C45.8283 11.4993 45.8283 9.97264 44.8902 9.02537Z" fill="#373DCC"/>
</svg>
